<mxfile host="app.diagrams.net" modified="2022-04-01T07:14:32.337Z" agent="5.0 (Macintosh; Intel Mac OS X 10_15_7) AppleWebKit/605.1.15 (KHTML, like Gecko) Version/15.0 Safari/605.1.15" etag="lWykb-5yygJ6k8EsWE7g" version="17.3.0" type="github">
  <diagram id="YTtFC-42DG8cQJvoDl5f" name="Page-1">
    <mxGraphModel dx="4625" dy="2234" grid="1" gridSize="10" guides="1" tooltips="1" connect="1" arrows="1" fold="1" page="1" pageScale="1" pageWidth="827" pageHeight="1169" math="0" shadow="0">
      <root>
        <mxCell id="0" />
        <mxCell id="1" parent="0" />
        <mxCell id="w_KVmcPeoKWREh152ISu-98" value="" style="ellipse;whiteSpace=wrap;html=1;strokeWidth=2;" parent="1" vertex="1">
          <mxGeometry x="-407" y="2715.99" width="410" height="290" as="geometry" />
        </mxCell>
        <mxCell id="w_KVmcPeoKWREh152ISu-95" value="" style="ellipse;whiteSpace=wrap;html=1;strokeWidth=2;" parent="1" vertex="1">
          <mxGeometry x="-867" y="2765.99" width="350" height="300" as="geometry" />
        </mxCell>
        <mxCell id="w_KVmcPeoKWREh152ISu-94" value="" style="ellipse;whiteSpace=wrap;html=1;strokeWidth=2;" parent="1" vertex="1">
          <mxGeometry x="-767" y="2394.99" width="360" height="291" as="geometry" />
        </mxCell>
        <mxCell id="AW0kLnYZqIp8P32nZOOA-44" value="" style="rounded=1;whiteSpace=wrap;html=1;fontSize=9;" parent="1" vertex="1">
          <mxGeometry x="490" y="268" width="310" height="192" as="geometry" />
        </mxCell>
        <mxCell id="AW0kLnYZqIp8P32nZOOA-15" style="rounded=0;orthogonalLoop=1;jettySize=auto;html=1;entryX=0.25;entryY=0;entryDx=0;entryDy=0;fontSize=14;" parent="1" source="AW0kLnYZqIp8P32nZOOA-2" target="AW0kLnYZqIp8P32nZOOA-12" edge="1">
          <mxGeometry relative="1" as="geometry" />
        </mxCell>
        <mxCell id="AW0kLnYZqIp8P32nZOOA-2" value="数据文件" style="shape=document;whiteSpace=wrap;html=1;boundedLbl=1;fillColor=#dae8fc;strokeColor=#6c8ebf;" parent="1" vertex="1">
          <mxGeometry x="70" y="188" width="120" height="80" as="geometry" />
        </mxCell>
        <mxCell id="AW0kLnYZqIp8P32nZOOA-3" value="" style="endArrow=classic;html=1;rounded=0;exitX=0.75;exitY=0;exitDx=0;exitDy=0;" parent="1" source="AW0kLnYZqIp8P32nZOOA-12" edge="1">
          <mxGeometry width="50" height="50" relative="1" as="geometry">
            <mxPoint x="210" y="200" as="sourcePoint" />
            <mxPoint x="330" y="250" as="targetPoint" />
          </mxGeometry>
        </mxCell>
        <mxCell id="AW0kLnYZqIp8P32nZOOA-4" value="划分" style="text;html=1;align=center;verticalAlign=middle;resizable=0;points=[];autosize=1;strokeColor=none;fillColor=none;rotation=-60;" parent="1" vertex="1">
          <mxGeometry x="280" y="270" width="40" height="20" as="geometry" />
        </mxCell>
        <mxCell id="AW0kLnYZqIp8P32nZOOA-40" style="edgeStyle=orthogonalEdgeStyle;rounded=0;orthogonalLoop=1;jettySize=auto;html=1;entryX=0.5;entryY=0;entryDx=0;entryDy=0;entryPerimeter=0;fontSize=9;exitX=0.5;exitY=0;exitDx=0;exitDy=0;" parent="1" source="AW0kLnYZqIp8P32nZOOA-6" target="AW0kLnYZqIp8P32nZOOA-27" edge="1">
          <mxGeometry relative="1" as="geometry">
            <Array as="points">
              <mxPoint x="354" y="70" />
              <mxPoint x="540" y="70" />
            </Array>
          </mxGeometry>
        </mxCell>
        <mxCell id="AW0kLnYZqIp8P32nZOOA-6" value="&lt;span&gt;子数据文件1&lt;/span&gt;" style="shape=document;whiteSpace=wrap;html=1;boundedLbl=1;fillColor=#dae8fc;strokeColor=#6c8ebf;" parent="1" vertex="1">
          <mxGeometry x="294" y="120" width="120" height="80" as="geometry" />
        </mxCell>
        <mxCell id="NsNZp9OTGZfaQZeiyPrE-15" style="edgeStyle=orthogonalEdgeStyle;rounded=0;orthogonalLoop=1;jettySize=auto;html=1;exitX=0.5;exitY=0;exitDx=0;exitDy=0;entryX=0.5;entryY=0;entryDx=0;entryDy=0;entryPerimeter=0;" parent="1" source="AW0kLnYZqIp8P32nZOOA-7" target="NsNZp9OTGZfaQZeiyPrE-10" edge="1">
          <mxGeometry relative="1" as="geometry">
            <Array as="points">
              <mxPoint x="380" y="90" />
              <mxPoint x="660" y="90" />
            </Array>
          </mxGeometry>
        </mxCell>
        <mxCell id="AW0kLnYZqIp8P32nZOOA-7" value="子数据文件2" style="shape=document;whiteSpace=wrap;html=1;boundedLbl=1;fillColor=#dae8fc;strokeColor=#6c8ebf;" parent="1" vertex="1">
          <mxGeometry x="320" y="160" width="120" height="80" as="geometry" />
        </mxCell>
        <mxCell id="AW0kLnYZqIp8P32nZOOA-8" value="&lt;font style=&quot;font-size: 24px&quot;&gt;...&lt;/font&gt;" style="text;html=1;strokeColor=none;fillColor=none;align=center;verticalAlign=middle;whiteSpace=wrap;rounded=0;" parent="1" vertex="1">
          <mxGeometry x="370" y="250" width="60" height="30" as="geometry" />
        </mxCell>
        <mxCell id="AW0kLnYZqIp8P32nZOOA-42" style="edgeStyle=orthogonalEdgeStyle;rounded=0;orthogonalLoop=1;jettySize=auto;html=1;fontSize=9;" parent="1" source="AW0kLnYZqIp8P32nZOOA-12" edge="1">
          <mxGeometry relative="1" as="geometry">
            <mxPoint x="480" y="385" as="targetPoint" />
          </mxGeometry>
        </mxCell>
        <mxCell id="AW0kLnYZqIp8P32nZOOA-12" value="" style="rounded=1;whiteSpace=wrap;html=1;fontSize=24;fillColor=#f8cecc;strokeColor=#b85450;" parent="1" vertex="1">
          <mxGeometry x="116" y="320" width="230" height="130" as="geometry" />
        </mxCell>
        <mxCell id="AW0kLnYZqIp8P32nZOOA-13" value="&lt;font style=&quot;font-size: 14px&quot;&gt;master&lt;/font&gt;" style="text;html=1;strokeColor=none;fillColor=none;align=center;verticalAlign=middle;whiteSpace=wrap;rounded=0;fontSize=24;" parent="1" vertex="1">
          <mxGeometry x="200" y="320" width="60" height="30" as="geometry" />
        </mxCell>
        <mxCell id="AW0kLnYZqIp8P32nZOOA-16" value="parse" style="text;html=1;strokeColor=none;fillColor=none;align=center;verticalAlign=middle;whiteSpace=wrap;rounded=0;fontSize=14;rotation=60;" parent="1" vertex="1">
          <mxGeometry x="145" y="270" width="60" height="30" as="geometry" />
        </mxCell>
        <mxCell id="AW0kLnYZqIp8P32nZOOA-18" value="&lt;font style=&quot;font-size: 9px&quot;&gt;数据解析&lt;br&gt;&lt;/font&gt;" style="rounded=1;whiteSpace=wrap;html=1;fontSize=18;fillColor=#f5f5f5;strokeColor=#666666;fontColor=#333333;" parent="1" vertex="1">
          <mxGeometry x="130" y="360" width="90" height="30" as="geometry" />
        </mxCell>
        <mxCell id="AW0kLnYZqIp8P32nZOOA-19" value="&lt;font style=&quot;font-size: 9px&quot;&gt;并行通信模块&lt;br&gt;&lt;/font&gt;" style="rounded=1;whiteSpace=wrap;html=1;fontSize=18;fillColor=#f5f5f5;strokeColor=#666666;fontColor=#333333;" parent="1" vertex="1">
          <mxGeometry x="235" y="360" width="90" height="30" as="geometry" />
        </mxCell>
        <mxCell id="AW0kLnYZqIp8P32nZOOA-20" value="&lt;font style=&quot;font-size: 9px&quot;&gt;查询解析&lt;br&gt;&lt;/font&gt;" style="rounded=1;whiteSpace=wrap;html=1;fontSize=18;fillColor=#f5f5f5;strokeColor=#666666;fontColor=#333333;" parent="1" vertex="1">
          <mxGeometry x="130" y="400" width="90" height="30" as="geometry" />
        </mxCell>
        <mxCell id="AW0kLnYZqIp8P32nZOOA-21" value="&lt;font style=&quot;font-size: 9px&quot;&gt;信息统计&lt;br&gt;&lt;/font&gt;" style="rounded=1;whiteSpace=wrap;html=1;fontSize=18;fillColor=#f5f5f5;strokeColor=#666666;fontColor=#333333;" parent="1" vertex="1">
          <mxGeometry x="235" y="400" width="90" height="30" as="geometry" />
        </mxCell>
        <mxCell id="AW0kLnYZqIp8P32nZOOA-23" value="slave1" style="rounded=1;whiteSpace=wrap;html=1;fontSize=9;fillColor=#ffe6cc;strokeColor=#d79b00;" parent="1" vertex="1">
          <mxGeometry x="515" y="287" width="70" height="30" as="geometry" />
        </mxCell>
        <mxCell id="AW0kLnYZqIp8P32nZOOA-24" value="slave_n" style="rounded=1;whiteSpace=wrap;html=1;fontSize=9;fillColor=#ffe6cc;strokeColor=#d79b00;" parent="1" vertex="1">
          <mxGeometry x="716" y="287" width="68" height="30" as="geometry" />
        </mxCell>
        <mxCell id="AW0kLnYZqIp8P32nZOOA-25" value="&lt;font style=&quot;font-size: 24px&quot;&gt;...&lt;/font&gt;" style="text;html=1;strokeColor=none;fillColor=none;align=center;verticalAlign=middle;whiteSpace=wrap;rounded=0;" parent="1" vertex="1">
          <mxGeometry x="665" y="280" width="60" height="30" as="geometry" />
        </mxCell>
        <mxCell id="AW0kLnYZqIp8P32nZOOA-26" value="" style="rounded=1;whiteSpace=wrap;html=1;fontSize=9;fillColor=#ffe6cc;strokeColor=#d79b00;" parent="1" vertex="1">
          <mxGeometry x="510" y="345" width="260" height="105" as="geometry" />
        </mxCell>
        <mxCell id="AW0kLnYZqIp8P32nZOOA-27" value="" style="shape=cylinder3;whiteSpace=wrap;html=1;boundedLbl=1;backgroundOutline=1;size=15;fontSize=9;fillColor=#d5e8d4;strokeColor=#82b366;" parent="1" vertex="1">
          <mxGeometry x="510" y="130" width="60" height="80" as="geometry" />
        </mxCell>
        <mxCell id="AW0kLnYZqIp8P32nZOOA-28" value="" style="shape=cylinder3;whiteSpace=wrap;html=1;boundedLbl=1;backgroundOutline=1;size=15;fontSize=9;fillColor=#d5e8d4;strokeColor=#82b366;" parent="1" vertex="1">
          <mxGeometry x="740" y="130" width="60" height="80" as="geometry" />
        </mxCell>
        <mxCell id="AW0kLnYZqIp8P32nZOOA-29" value="&lt;span style=&quot;font-size: 14px&quot;&gt;slave&lt;/span&gt;" style="text;html=1;strokeColor=none;fillColor=none;align=center;verticalAlign=middle;whiteSpace=wrap;rounded=0;fontSize=24;" parent="1" vertex="1">
          <mxGeometry x="610" y="345" width="60" height="20" as="geometry" />
        </mxCell>
        <mxCell id="AW0kLnYZqIp8P32nZOOA-30" value="&lt;font style=&quot;font-size: 9px&quot;&gt;数据存储&lt;br&gt;&lt;/font&gt;" style="rounded=1;whiteSpace=wrap;html=1;fontSize=18;fillColor=#f5f5f5;fontColor=#333333;strokeColor=#666666;" parent="1" vertex="1">
          <mxGeometry x="540" y="370" width="90" height="30" as="geometry" />
        </mxCell>
        <mxCell id="AW0kLnYZqIp8P32nZOOA-31" value="&lt;font style=&quot;font-size: 9px&quot;&gt;通信模块&lt;br&gt;&lt;/font&gt;" style="rounded=1;whiteSpace=wrap;html=1;fontSize=18;fillColor=#f5f5f5;fontColor=#333333;strokeColor=#666666;" parent="1" vertex="1">
          <mxGeometry x="650" y="370" width="90" height="30" as="geometry" />
        </mxCell>
        <mxCell id="AW0kLnYZqIp8P32nZOOA-32" value="&lt;font style=&quot;font-size: 9px&quot;&gt;请求处理&lt;br&gt;&lt;/font&gt;" style="rounded=1;whiteSpace=wrap;html=1;fontSize=18;fillColor=#f5f5f5;fontColor=#333333;strokeColor=#666666;" parent="1" vertex="1">
          <mxGeometry x="540" y="410" width="90" height="30" as="geometry" />
        </mxCell>
        <mxCell id="AW0kLnYZqIp8P32nZOOA-33" value="&lt;font style=&quot;font-size: 9px&quot;&gt;信息统计&lt;br&gt;&lt;/font&gt;" style="rounded=1;whiteSpace=wrap;html=1;fontSize=18;fillColor=#f5f5f5;fontColor=#333333;strokeColor=#666666;" parent="1" vertex="1">
          <mxGeometry x="652" y="410" width="90" height="30" as="geometry" />
        </mxCell>
        <mxCell id="AW0kLnYZqIp8P32nZOOA-35" value="HyperBit&amp;nbsp;" style="text;html=1;align=center;verticalAlign=middle;resizable=0;points=[];autosize=1;strokeColor=none;fillColor=none;fontSize=9;" parent="1" vertex="1">
          <mxGeometry x="515" y="220" width="70" height="20" as="geometry" />
        </mxCell>
        <mxCell id="AW0kLnYZqIp8P32nZOOA-36" value="HyperBit&amp;nbsp;" style="text;html=1;align=center;verticalAlign=middle;resizable=0;points=[];autosize=1;strokeColor=none;fillColor=none;fontSize=9;" parent="1" vertex="1">
          <mxGeometry x="741" y="220" width="70" height="20" as="geometry" />
        </mxCell>
        <mxCell id="AW0kLnYZqIp8P32nZOOA-38" value="" style="endArrow=none;dashed=1;html=1;dashPattern=1 3;strokeWidth=2;rounded=0;fontSize=9;exitX=0.5;exitY=0;exitDx=0;exitDy=0;" parent="1" source="AW0kLnYZqIp8P32nZOOA-23" target="AW0kLnYZqIp8P32nZOOA-35" edge="1">
          <mxGeometry width="50" height="50" relative="1" as="geometry">
            <mxPoint x="560" y="276" as="sourcePoint" />
            <mxPoint x="599" y="247" as="targetPoint" />
          </mxGeometry>
        </mxCell>
        <mxCell id="AW0kLnYZqIp8P32nZOOA-39" value="" style="endArrow=none;dashed=1;html=1;dashPattern=1 3;strokeWidth=2;rounded=0;fontSize=9;exitX=0.5;exitY=0;exitDx=0;exitDy=0;" parent="1" source="AW0kLnYZqIp8P32nZOOA-24" target="AW0kLnYZqIp8P32nZOOA-36" edge="1">
          <mxGeometry width="50" height="50" relative="1" as="geometry">
            <mxPoint x="697" y="279" as="sourcePoint" />
            <mxPoint x="740" y="240" as="targetPoint" />
          </mxGeometry>
        </mxCell>
        <mxCell id="AW0kLnYZqIp8P32nZOOA-43" value="请求分发" style="text;html=1;align=center;verticalAlign=middle;resizable=0;points=[];autosize=1;strokeColor=none;fillColor=none;fontSize=9;" parent="1" vertex="1">
          <mxGeometry x="380" y="360" width="60" height="20" as="geometry" />
        </mxCell>
        <mxCell id="NsNZp9OTGZfaQZeiyPrE-2" value="（存储、插入、查询）" style="text;html=1;align=center;verticalAlign=middle;resizable=0;points=[];autosize=1;strokeColor=none;fillColor=none;" parent="1" vertex="1">
          <mxGeometry x="340" y="390" width="140" height="20" as="geometry" />
        </mxCell>
        <mxCell id="NsNZp9OTGZfaQZeiyPrE-16" style="edgeStyle=orthogonalEdgeStyle;rounded=0;orthogonalLoop=1;jettySize=auto;html=1;exitX=0.5;exitY=0;exitDx=0;exitDy=0;entryX=0.5;entryY=0;entryDx=0;entryDy=0;entryPerimeter=0;" parent="1" source="NsNZp9OTGZfaQZeiyPrE-6" target="AW0kLnYZqIp8P32nZOOA-28" edge="1">
          <mxGeometry relative="1" as="geometry" />
        </mxCell>
        <mxCell id="NsNZp9OTGZfaQZeiyPrE-6" value="子数据文件3" style="shape=document;whiteSpace=wrap;html=1;boundedLbl=1;fillColor=#dae8fc;strokeColor=#6c8ebf;" parent="1" vertex="1">
          <mxGeometry x="346" y="200" width="120" height="80" as="geometry" />
        </mxCell>
        <mxCell id="NsNZp9OTGZfaQZeiyPrE-9" value="slave2" style="rounded=1;whiteSpace=wrap;html=1;fontSize=9;fillColor=#ffe6cc;strokeColor=#d79b00;" parent="1" vertex="1">
          <mxGeometry x="602" y="287" width="70" height="30" as="geometry" />
        </mxCell>
        <mxCell id="NsNZp9OTGZfaQZeiyPrE-10" value="" style="shape=cylinder3;whiteSpace=wrap;html=1;boundedLbl=1;backgroundOutline=1;size=15;fontSize=9;fillColor=#d5e8d4;strokeColor=#82b366;" parent="1" vertex="1">
          <mxGeometry x="630" y="130" width="60" height="80" as="geometry" />
        </mxCell>
        <mxCell id="NsNZp9OTGZfaQZeiyPrE-11" value="HyperBit" style="text;html=1;align=center;verticalAlign=middle;resizable=0;points=[];autosize=1;strokeColor=none;fillColor=none;fontSize=9;" parent="1" vertex="1">
          <mxGeometry x="635" y="220" width="60" height="20" as="geometry" />
        </mxCell>
        <mxCell id="NsNZp9OTGZfaQZeiyPrE-18" value="" style="endArrow=none;dashed=1;html=1;dashPattern=1 3;strokeWidth=2;rounded=0;fontSize=9;exitX=0.5;exitY=0;exitDx=0;exitDy=0;entryX=0.468;entryY=1.092;entryDx=0;entryDy=0;entryPerimeter=0;" parent="1" source="NsNZp9OTGZfaQZeiyPrE-9" target="NsNZp9OTGZfaQZeiyPrE-11" edge="1">
          <mxGeometry width="50" height="50" relative="1" as="geometry">
            <mxPoint x="565" y="297" as="sourcePoint" />
            <mxPoint x="560.8771929824561" y="250" as="targetPoint" />
          </mxGeometry>
        </mxCell>
        <mxCell id="NsNZp9OTGZfaQZeiyPrE-19" value="数据文件" style="shape=document;whiteSpace=wrap;html=1;boundedLbl=1;fillColor=#dae8fc;strokeColor=#6c8ebf;" parent="1" vertex="1">
          <mxGeometry x="50" y="650" width="120" height="80" as="geometry" />
        </mxCell>
        <mxCell id="NsNZp9OTGZfaQZeiyPrE-20" value="&lt;span&gt;子数据文件1&lt;/span&gt;" style="shape=document;whiteSpace=wrap;html=1;boundedLbl=1;fillColor=#dae8fc;strokeColor=#6c8ebf;" parent="1" vertex="1">
          <mxGeometry x="398" y="610" width="120" height="80" as="geometry" />
        </mxCell>
        <mxCell id="NsNZp9OTGZfaQZeiyPrE-21" value="子数据文件2" style="shape=document;whiteSpace=wrap;html=1;boundedLbl=1;fillColor=#dae8fc;strokeColor=#6c8ebf;" parent="1" vertex="1">
          <mxGeometry x="424" y="650" width="120" height="80" as="geometry" />
        </mxCell>
        <mxCell id="NsNZp9OTGZfaQZeiyPrE-22" value="子数据文件3" style="shape=document;whiteSpace=wrap;html=1;boundedLbl=1;fillColor=#dae8fc;strokeColor=#6c8ebf;" parent="1" vertex="1">
          <mxGeometry x="450" y="690" width="120" height="80" as="geometry" />
        </mxCell>
        <mxCell id="NsNZp9OTGZfaQZeiyPrE-25" value="超边数据四元组存储" style="rounded=1;whiteSpace=wrap;html=1;fontSize=18;fontStyle=0;fontFamily=Times New Roman;" parent="1" vertex="1">
          <mxGeometry x="85" y="860" width="145" height="70" as="geometry" />
        </mxCell>
        <mxCell id="NsNZp9OTGZfaQZeiyPrE-27" value="" style="html=1;shadow=0;dashed=0;align=center;verticalAlign=middle;shape=mxgraph.arrows2.arrow;dy=0.6;dx=40;notch=0;" parent="1" vertex="1">
          <mxGeometry x="260" y="860" width="80" height="60" as="geometry" />
        </mxCell>
        <mxCell id="NsNZp9OTGZfaQZeiyPrE-28" value="划分模块设计" style="rounded=1;whiteSpace=wrap;html=1;fontSize=18;fontStyle=0;fontFamily=Times New Roman;" parent="1" vertex="1">
          <mxGeometry x="370" y="855" width="145" height="70" as="geometry" />
        </mxCell>
        <mxCell id="NsNZp9OTGZfaQZeiyPrE-29" value="通信模块优化" style="rounded=1;whiteSpace=wrap;html=1;fontSize=18;fontStyle=0;fontFamily=Times New Roman;" parent="1" vertex="1">
          <mxGeometry x="639" y="855" width="145" height="70" as="geometry" />
        </mxCell>
        <mxCell id="NsNZp9OTGZfaQZeiyPrE-30" value="" style="html=1;shadow=0;dashed=0;align=center;verticalAlign=middle;shape=mxgraph.arrows2.arrow;dy=0.6;dx=40;notch=0;" parent="1" vertex="1">
          <mxGeometry x="540" y="860" width="80" height="60" as="geometry" />
        </mxCell>
        <mxCell id="NsNZp9OTGZfaQZeiyPrE-32" value="" style="html=1;shadow=0;align=center;verticalAlign=middle;shape=mxgraph.arrows2.arrow;dy=0.6;dx=40;notch=0;rotation=90;strokeColor=#CC0000;" parent="1" vertex="1">
          <mxGeometry x="410" y="950" width="80" height="60" as="geometry" />
        </mxCell>
        <mxCell id="NsNZp9OTGZfaQZeiyPrE-33" value="分布式图划分算法研究" style="rounded=1;whiteSpace=wrap;html=1;fontSize=18;fontStyle=0;fontFamily=Times New Roman;strokeColor=#990000;fontColor=#990000;" parent="1" vertex="1">
          <mxGeometry x="377.5" y="1030" width="145" height="70" as="geometry" />
        </mxCell>
        <mxCell id="NsNZp9OTGZfaQZeiyPrE-34" value="" style="html=1;shadow=0;dashed=0;align=center;verticalAlign=middle;shape=mxgraph.arrows2.arrow;dy=0.6;dx=40;notch=0;strokeColor=#990000;" parent="1" vertex="1">
          <mxGeometry x="544" y="1035" width="80" height="60" as="geometry" />
        </mxCell>
        <mxCell id="NsNZp9OTGZfaQZeiyPrE-35" value="负载均衡优化" style="rounded=1;whiteSpace=wrap;html=1;fontSize=18;fontStyle=0;fontFamily=Times New Roman;strokeColor=#990000;fontColor=#990000;" parent="1" vertex="1">
          <mxGeometry x="639" y="1025" width="145" height="70" as="geometry" />
        </mxCell>
        <mxCell id="w_KVmcPeoKWREh152ISu-19" style="edgeStyle=none;rounded=0;orthogonalLoop=1;jettySize=auto;html=1;entryX=1;entryY=0.5;entryDx=0;entryDy=0;endArrow=none;endFill=0;strokeWidth=2;" parent="1" target="w_KVmcPeoKWREh152ISu-4" edge="1">
          <mxGeometry relative="1" as="geometry">
            <mxPoint x="-604" y="2555.99" as="sourcePoint" />
          </mxGeometry>
        </mxCell>
        <mxCell id="w_KVmcPeoKWREh152ISu-20" style="edgeStyle=none;rounded=0;orthogonalLoop=1;jettySize=auto;html=1;entryX=0;entryY=0.5;entryDx=0;entryDy=0;endArrow=none;endFill=0;strokeWidth=2;" parent="1" target="w_KVmcPeoKWREh152ISu-5" edge="1">
          <mxGeometry relative="1" as="geometry">
            <mxPoint x="-567" y="2555.99" as="sourcePoint" />
          </mxGeometry>
        </mxCell>
        <mxCell id="w_KVmcPeoKWREh152ISu-22" style="edgeStyle=none;rounded=0;orthogonalLoop=1;jettySize=auto;html=1;entryX=0.5;entryY=0;entryDx=0;entryDy=0;endArrow=none;endFill=0;strokeWidth=2;" parent="1" source="w_KVmcPeoKWREh152ISu-1" target="w_KVmcPeoKWREh152ISu-6" edge="1">
          <mxGeometry relative="1" as="geometry" />
        </mxCell>
        <mxCell id="w_KVmcPeoKWREh152ISu-1" value="" style="ellipse;whiteSpace=wrap;html=1;aspect=fixed;fillColor=#cdeb8b;strokeColor=#36393d;strokeWidth=2;" parent="1" vertex="1">
          <mxGeometry x="-609.5" y="2530.99" width="40" height="40" as="geometry" />
        </mxCell>
        <mxCell id="w_KVmcPeoKWREh152ISu-18" style="edgeStyle=none;rounded=0;orthogonalLoop=1;jettySize=auto;html=1;exitX=1;exitY=1;exitDx=0;exitDy=0;entryX=0;entryY=0;entryDx=0;entryDy=0;endArrow=none;endFill=0;strokeWidth=2;" parent="1" source="w_KVmcPeoKWREh152ISu-2" target="w_KVmcPeoKWREh152ISu-1" edge="1">
          <mxGeometry relative="1" as="geometry" />
        </mxCell>
        <mxCell id="w_KVmcPeoKWREh152ISu-21" style="edgeStyle=none;rounded=0;orthogonalLoop=1;jettySize=auto;html=1;exitX=1;exitY=0.5;exitDx=0;exitDy=0;entryX=0;entryY=0.5;entryDx=0;entryDy=0;endArrow=none;endFill=0;strokeWidth=2;" parent="1" source="w_KVmcPeoKWREh152ISu-2" target="w_KVmcPeoKWREh152ISu-3" edge="1">
          <mxGeometry relative="1" as="geometry" />
        </mxCell>
        <mxCell id="w_KVmcPeoKWREh152ISu-2" value="" style="ellipse;whiteSpace=wrap;html=1;aspect=fixed;fillColor=#cdeb8b;strokeColor=#36393d;strokeWidth=2;" parent="1" vertex="1">
          <mxGeometry x="-672" y="2445.99" width="40" height="40" as="geometry" />
        </mxCell>
        <mxCell id="w_KVmcPeoKWREh152ISu-3" value="" style="ellipse;whiteSpace=wrap;html=1;aspect=fixed;fillColor=#cdeb8b;strokeColor=#36393d;strokeWidth=2;" parent="1" vertex="1">
          <mxGeometry x="-554.5" y="2425.99" width="40" height="40" as="geometry" />
        </mxCell>
        <mxCell id="w_KVmcPeoKWREh152ISu-4" value="" style="ellipse;whiteSpace=wrap;html=1;aspect=fixed;fillColor=#cdeb8b;strokeColor=#36393d;strokeWidth=2;" parent="1" vertex="1">
          <mxGeometry x="-707" y="2565.99" width="40" height="40" as="geometry" />
        </mxCell>
        <mxCell id="w_KVmcPeoKWREh152ISu-5" value="" style="ellipse;whiteSpace=wrap;html=1;aspect=fixed;fillColor=#cdeb8b;strokeColor=#36393d;strokeWidth=2;" parent="1" vertex="1">
          <mxGeometry x="-497" y="2540.99" width="40" height="40" as="geometry" />
        </mxCell>
        <mxCell id="w_KVmcPeoKWREh152ISu-23" style="edgeStyle=none;rounded=0;orthogonalLoop=1;jettySize=auto;html=1;exitX=0.291;exitY=0.988;exitDx=0;exitDy=0;entryX=1;entryY=0;entryDx=0;entryDy=0;endArrow=none;endFill=0;exitPerimeter=0;strokeWidth=2;" parent="1" source="w_KVmcPeoKWREh152ISu-89" target="w_KVmcPeoKWREh152ISu-7" edge="1">
          <mxGeometry relative="1" as="geometry" />
        </mxCell>
        <mxCell id="w_KVmcPeoKWREh152ISu-28" style="edgeStyle=none;rounded=0;orthogonalLoop=1;jettySize=auto;html=1;entryX=0.125;entryY=0.25;entryDx=0;entryDy=0;endArrow=none;endFill=0;entryPerimeter=0;exitX=1;exitY=1;exitDx=0;exitDy=0;strokeWidth=2;" parent="1" source="w_KVmcPeoKWREh152ISu-90" target="w_KVmcPeoKWREh152ISu-11" edge="1">
          <mxGeometry relative="1" as="geometry">
            <mxPoint x="-262" y="2699.99" as="sourcePoint" />
          </mxGeometry>
        </mxCell>
        <mxCell id="w_KVmcPeoKWREh152ISu-6" value="" style="ellipse;whiteSpace=wrap;html=1;aspect=fixed;fillColor=#cdeb8b;strokeColor=#36393d;strokeWidth=2;" parent="1" vertex="1">
          <mxGeometry x="-594.5" y="2625.99" width="40" height="40" as="geometry" />
        </mxCell>
        <mxCell id="w_KVmcPeoKWREh152ISu-26" style="edgeStyle=none;rounded=0;orthogonalLoop=1;jettySize=auto;html=1;entryX=1;entryY=0;entryDx=0;entryDy=0;endArrow=none;endFill=0;exitX=0.5;exitY=1;exitDx=0;exitDy=0;strokeWidth=2;" parent="1" source="w_KVmcPeoKWREh152ISu-7" target="w_KVmcPeoKWREh152ISu-9" edge="1">
          <mxGeometry relative="1" as="geometry">
            <mxPoint x="-633.5" y="2822.99" as="sourcePoint" />
          </mxGeometry>
        </mxCell>
        <mxCell id="w_KVmcPeoKWREh152ISu-7" value="" style="ellipse;whiteSpace=wrap;html=1;aspect=fixed;fillColor=#cce5ff;strokeColor=#36393d;strokeWidth=2;" parent="1" vertex="1">
          <mxGeometry x="-713.5" y="2862.99" width="40" height="40" as="geometry" />
        </mxCell>
        <mxCell id="w_KVmcPeoKWREh152ISu-25" style="edgeStyle=none;rounded=0;orthogonalLoop=1;jettySize=auto;html=1;exitX=1;exitY=1;exitDx=0;exitDy=0;entryX=0;entryY=0;entryDx=0;entryDy=0;endArrow=none;endFill=0;strokeWidth=2;" parent="1" source="w_KVmcPeoKWREh152ISu-8" target="w_KVmcPeoKWREh152ISu-9" edge="1">
          <mxGeometry relative="1" as="geometry" />
        </mxCell>
        <mxCell id="w_KVmcPeoKWREh152ISu-97" style="edgeStyle=none;rounded=0;orthogonalLoop=1;jettySize=auto;html=1;exitX=1;exitY=0.5;exitDx=0;exitDy=0;entryX=0;entryY=0.5;entryDx=0;entryDy=0;endArrow=none;endFill=0;strokeWidth=2;" parent="1" source="w_KVmcPeoKWREh152ISu-8" target="w_KVmcPeoKWREh152ISu-7" edge="1">
          <mxGeometry relative="1" as="geometry" />
        </mxCell>
        <mxCell id="w_KVmcPeoKWREh152ISu-8" value="" style="ellipse;whiteSpace=wrap;html=1;aspect=fixed;fillColor=#cce5ff;strokeColor=#36393d;strokeWidth=2;" parent="1" vertex="1">
          <mxGeometry x="-841" y="2842.99" width="40" height="40" as="geometry" />
        </mxCell>
        <mxCell id="w_KVmcPeoKWREh152ISu-27" style="edgeStyle=none;rounded=0;orthogonalLoop=1;jettySize=auto;html=1;exitX=0.985;exitY=0.66;exitDx=0;exitDy=0;entryX=0;entryY=0.5;entryDx=0;entryDy=0;endArrow=none;endFill=0;exitPerimeter=0;strokeWidth=2;" parent="1" source="w_KVmcPeoKWREh152ISu-9" target="w_KVmcPeoKWREh152ISu-10" edge="1">
          <mxGeometry relative="1" as="geometry" />
        </mxCell>
        <mxCell id="w_KVmcPeoKWREh152ISu-9" value="" style="ellipse;whiteSpace=wrap;html=1;aspect=fixed;fillColor=#cce5ff;strokeColor=#36393d;strokeWidth=2;" parent="1" vertex="1">
          <mxGeometry x="-766" y="2962.99" width="40" height="40" as="geometry" />
        </mxCell>
        <mxCell id="w_KVmcPeoKWREh152ISu-10" value="" style="ellipse;whiteSpace=wrap;html=1;aspect=fixed;fillColor=#cce5ff;strokeColor=#36393d;strokeWidth=2;" parent="1" vertex="1">
          <mxGeometry x="-621" y="2992.99" width="40" height="40" as="geometry" />
        </mxCell>
        <mxCell id="w_KVmcPeoKWREh152ISu-30" style="edgeStyle=none;rounded=0;orthogonalLoop=1;jettySize=auto;html=1;exitX=0.912;exitY=0.71;exitDx=0;exitDy=0;entryX=0;entryY=0;entryDx=0;entryDy=0;endArrow=none;endFill=0;exitPerimeter=0;strokeWidth=2;" parent="1" source="w_KVmcPeoKWREh152ISu-11" target="w_KVmcPeoKWREh152ISu-12" edge="1">
          <mxGeometry relative="1" as="geometry" />
        </mxCell>
        <mxCell id="w_KVmcPeoKWREh152ISu-11" value="" style="ellipse;whiteSpace=wrap;html=1;aspect=fixed;fillColor=#ffcccc;strokeColor=#36393d;strokeWidth=2;" parent="1" vertex="1">
          <mxGeometry x="-270" y="2799.99" width="40" height="40" as="geometry" />
        </mxCell>
        <mxCell id="w_KVmcPeoKWREh152ISu-31" style="edgeStyle=none;rounded=0;orthogonalLoop=1;jettySize=auto;html=1;entryX=0.5;entryY=0;entryDx=0;entryDy=0;endArrow=none;endFill=0;strokeWidth=2;" parent="1" source="w_KVmcPeoKWREh152ISu-12" target="w_KVmcPeoKWREh152ISu-13" edge="1">
          <mxGeometry relative="1" as="geometry" />
        </mxCell>
        <mxCell id="w_KVmcPeoKWREh152ISu-32" style="edgeStyle=none;rounded=0;orthogonalLoop=1;jettySize=auto;html=1;entryX=0;entryY=0.5;entryDx=0;entryDy=0;endArrow=none;endFill=0;strokeWidth=2;" parent="1" source="w_KVmcPeoKWREh152ISu-12" target="w_KVmcPeoKWREh152ISu-14" edge="1">
          <mxGeometry relative="1" as="geometry" />
        </mxCell>
        <mxCell id="w_KVmcPeoKWREh152ISu-12" value="" style="ellipse;whiteSpace=wrap;html=1;aspect=fixed;fillColor=#ffcccc;strokeColor=#36393d;strokeWidth=2;" parent="1" vertex="1">
          <mxGeometry x="-205" y="2839.99" width="40" height="40" as="geometry" />
        </mxCell>
        <mxCell id="w_KVmcPeoKWREh152ISu-13" value="" style="ellipse;whiteSpace=wrap;html=1;aspect=fixed;fillColor=#ffcccc;strokeColor=#36393d;strokeWidth=2;" parent="1" vertex="1">
          <mxGeometry x="-195" y="2939.99" width="40" height="40" as="geometry" />
        </mxCell>
        <mxCell id="w_KVmcPeoKWREh152ISu-14" value="" style="ellipse;whiteSpace=wrap;html=1;aspect=fixed;fillColor=#ffcccc;strokeColor=#36393d;strokeWidth=2;" parent="1" vertex="1">
          <mxGeometry x="-107" y="2839.99" width="40" height="40" as="geometry" />
        </mxCell>
        <mxCell id="w_KVmcPeoKWREh152ISu-61" style="edgeStyle=none;rounded=0;orthogonalLoop=1;jettySize=auto;html=1;entryX=1;entryY=0.5;entryDx=0;entryDy=0;endArrow=none;endFill=0;fillColor=#cdeb8b;strokeColor=#36393d;strokeWidth=2;" parent="1" target="w_KVmcPeoKWREh152ISu-69" edge="1">
          <mxGeometry relative="1" as="geometry">
            <mxPoint x="-501.5" y="1770" as="sourcePoint" />
          </mxGeometry>
        </mxCell>
        <mxCell id="w_KVmcPeoKWREh152ISu-62" style="edgeStyle=none;rounded=0;orthogonalLoop=1;jettySize=auto;html=1;entryX=0;entryY=0.5;entryDx=0;entryDy=0;endArrow=none;endFill=0;fillColor=#cdeb8b;strokeColor=#36393d;strokeWidth=2;" parent="1" target="w_KVmcPeoKWREh152ISu-70" edge="1">
          <mxGeometry relative="1" as="geometry">
            <mxPoint x="-464.5" y="1770" as="sourcePoint" />
          </mxGeometry>
        </mxCell>
        <mxCell id="w_KVmcPeoKWREh152ISu-63" style="edgeStyle=none;rounded=0;orthogonalLoop=1;jettySize=auto;html=1;entryX=0.5;entryY=0;entryDx=0;entryDy=0;endArrow=none;endFill=0;fillColor=#eeeeee;strokeColor=#36393d;strokeWidth=2;" parent="1" source="w_KVmcPeoKWREh152ISu-64" target="w_KVmcPeoKWREh152ISu-73" edge="1">
          <mxGeometry relative="1" as="geometry" />
        </mxCell>
        <mxCell id="w_KVmcPeoKWREh152ISu-64" value="" style="ellipse;whiteSpace=wrap;html=1;aspect=fixed;fillColor=#cdeb8b;strokeColor=#36393d;strokeWidth=2;" parent="1" vertex="1">
          <mxGeometry x="-507" y="1745" width="40" height="40" as="geometry" />
        </mxCell>
        <mxCell id="w_KVmcPeoKWREh152ISu-65" style="edgeStyle=none;rounded=0;orthogonalLoop=1;jettySize=auto;html=1;exitX=1;exitY=1;exitDx=0;exitDy=0;entryX=0;entryY=0;entryDx=0;entryDy=0;endArrow=none;endFill=0;fillColor=#cdeb8b;strokeColor=#36393d;strokeWidth=2;" parent="1" source="w_KVmcPeoKWREh152ISu-67" target="w_KVmcPeoKWREh152ISu-64" edge="1">
          <mxGeometry relative="1" as="geometry" />
        </mxCell>
        <mxCell id="w_KVmcPeoKWREh152ISu-66" style="edgeStyle=none;rounded=0;orthogonalLoop=1;jettySize=auto;html=1;exitX=1;exitY=0.5;exitDx=0;exitDy=0;entryX=0;entryY=0.5;entryDx=0;entryDy=0;endArrow=none;endFill=0;fillColor=#cdeb8b;strokeColor=#36393d;strokeWidth=2;" parent="1" source="w_KVmcPeoKWREh152ISu-67" target="w_KVmcPeoKWREh152ISu-68" edge="1">
          <mxGeometry relative="1" as="geometry" />
        </mxCell>
        <mxCell id="w_KVmcPeoKWREh152ISu-67" value="" style="ellipse;whiteSpace=wrap;html=1;aspect=fixed;fillColor=#cdeb8b;strokeColor=#36393d;strokeWidth=2;" parent="1" vertex="1">
          <mxGeometry x="-569.5" y="1660" width="40" height="40" as="geometry" />
        </mxCell>
        <mxCell id="w_KVmcPeoKWREh152ISu-68" value="" style="ellipse;whiteSpace=wrap;html=1;aspect=fixed;fillColor=#cdeb8b;strokeColor=#36393d;strokeWidth=2;" parent="1" vertex="1">
          <mxGeometry x="-452" y="1640" width="40" height="40" as="geometry" />
        </mxCell>
        <mxCell id="w_KVmcPeoKWREh152ISu-69" value="" style="ellipse;whiteSpace=wrap;html=1;aspect=fixed;fillColor=#cdeb8b;strokeColor=#36393d;strokeWidth=2;" parent="1" vertex="1">
          <mxGeometry x="-604.5" y="1780" width="40" height="40" as="geometry" />
        </mxCell>
        <mxCell id="w_KVmcPeoKWREh152ISu-70" value="" style="ellipse;whiteSpace=wrap;html=1;aspect=fixed;fillColor=#cdeb8b;strokeColor=#36393d;strokeWidth=2;" parent="1" vertex="1">
          <mxGeometry x="-394.5" y="1755" width="40" height="40" as="geometry" />
        </mxCell>
        <mxCell id="w_KVmcPeoKWREh152ISu-71" style="edgeStyle=none;rounded=0;orthogonalLoop=1;jettySize=auto;html=1;exitX=0;exitY=1;exitDx=0;exitDy=0;entryX=1;entryY=0;entryDx=0;entryDy=0;endArrow=none;endFill=0;fillColor=#cce5ff;strokeColor=#36393d;strokeWidth=2;" parent="1" source="w_KVmcPeoKWREh152ISu-73" target="w_KVmcPeoKWREh152ISu-76" edge="1">
          <mxGeometry relative="1" as="geometry" />
        </mxCell>
        <mxCell id="w_KVmcPeoKWREh152ISu-72" style="edgeStyle=none;rounded=0;orthogonalLoop=1;jettySize=auto;html=1;entryX=0.125;entryY=0.25;entryDx=0;entryDy=0;endArrow=none;endFill=0;entryPerimeter=0;fillColor=#eeeeee;strokeColor=#36393d;strokeWidth=2;" parent="1" target="w_KVmcPeoKWREh152ISu-83" edge="1">
          <mxGeometry relative="1" as="geometry">
            <mxPoint x="-454.5" y="1870" as="sourcePoint" />
          </mxGeometry>
        </mxCell>
        <mxCell id="w_KVmcPeoKWREh152ISu-73" value="" style="ellipse;whiteSpace=wrap;html=1;aspect=fixed;fillColor=#cce5ff;strokeColor=#36393d;strokeWidth=2;" parent="1" vertex="1">
          <mxGeometry x="-492" y="1840" width="40" height="40" as="geometry" />
        </mxCell>
        <mxCell id="w_KVmcPeoKWREh152ISu-74" style="edgeStyle=none;rounded=0;orthogonalLoop=1;jettySize=auto;html=1;exitX=0;exitY=0.5;exitDx=0;exitDy=0;entryX=1;entryY=0.5;entryDx=0;entryDy=0;endArrow=none;endFill=0;fillColor=#cce5ff;strokeColor=#36393d;strokeWidth=2;" parent="1" source="w_KVmcPeoKWREh152ISu-76" target="w_KVmcPeoKWREh152ISu-78" edge="1">
          <mxGeometry relative="1" as="geometry" />
        </mxCell>
        <mxCell id="w_KVmcPeoKWREh152ISu-75" style="edgeStyle=none;rounded=0;orthogonalLoop=1;jettySize=auto;html=1;endArrow=none;endFill=0;fillColor=#cce5ff;strokeColor=#36393d;strokeWidth=2;" parent="1" target="w_KVmcPeoKWREh152ISu-80" edge="1">
          <mxGeometry relative="1" as="geometry">
            <mxPoint x="-544.5" y="1960" as="sourcePoint" />
          </mxGeometry>
        </mxCell>
        <mxCell id="w_KVmcPeoKWREh152ISu-76" value="" style="ellipse;whiteSpace=wrap;html=1;aspect=fixed;fillColor=#cce5ff;strokeColor=#36393d;strokeWidth=2;" parent="1" vertex="1">
          <mxGeometry x="-557" y="1920" width="40" height="40" as="geometry" />
        </mxCell>
        <mxCell id="w_KVmcPeoKWREh152ISu-77" style="edgeStyle=none;rounded=0;orthogonalLoop=1;jettySize=auto;html=1;exitX=1;exitY=1;exitDx=0;exitDy=0;entryX=0;entryY=0;entryDx=0;entryDy=0;endArrow=none;endFill=0;fillColor=#cce5ff;strokeColor=#36393d;strokeWidth=2;" parent="1" source="w_KVmcPeoKWREh152ISu-78" target="w_KVmcPeoKWREh152ISu-80" edge="1">
          <mxGeometry relative="1" as="geometry" />
        </mxCell>
        <mxCell id="w_KVmcPeoKWREh152ISu-78" value="" style="ellipse;whiteSpace=wrap;html=1;aspect=fixed;fillColor=#cce5ff;strokeColor=#36393d;strokeWidth=2;" parent="1" vertex="1">
          <mxGeometry x="-684.5" y="1900" width="40" height="40" as="geometry" />
        </mxCell>
        <mxCell id="w_KVmcPeoKWREh152ISu-79" style="edgeStyle=none;rounded=0;orthogonalLoop=1;jettySize=auto;html=1;exitX=0.985;exitY=0.66;exitDx=0;exitDy=0;entryX=0;entryY=0.5;entryDx=0;entryDy=0;endArrow=none;endFill=0;exitPerimeter=0;fillColor=#cce5ff;strokeColor=#36393d;strokeWidth=2;" parent="1" source="w_KVmcPeoKWREh152ISu-80" target="w_KVmcPeoKWREh152ISu-81" edge="1">
          <mxGeometry relative="1" as="geometry" />
        </mxCell>
        <mxCell id="w_KVmcPeoKWREh152ISu-80" value="" style="ellipse;whiteSpace=wrap;html=1;aspect=fixed;fillColor=#cce5ff;strokeColor=#36393d;strokeWidth=2;" parent="1" vertex="1">
          <mxGeometry x="-609.5" y="2020" width="40" height="40" as="geometry" />
        </mxCell>
        <mxCell id="w_KVmcPeoKWREh152ISu-81" value="" style="ellipse;whiteSpace=wrap;html=1;aspect=fixed;fillColor=#cce5ff;strokeColor=#36393d;strokeWidth=2;" parent="1" vertex="1">
          <mxGeometry x="-464.5" y="2050" width="40" height="40" as="geometry" />
        </mxCell>
        <mxCell id="w_KVmcPeoKWREh152ISu-82" style="edgeStyle=none;rounded=0;orthogonalLoop=1;jettySize=auto;html=1;exitX=0.912;exitY=0.71;exitDx=0;exitDy=0;entryX=0;entryY=0;entryDx=0;entryDy=0;endArrow=none;endFill=0;exitPerimeter=0;fillColor=#ffcccc;strokeColor=#36393d;strokeWidth=2;" parent="1" source="w_KVmcPeoKWREh152ISu-83" target="w_KVmcPeoKWREh152ISu-86" edge="1">
          <mxGeometry relative="1" as="geometry" />
        </mxCell>
        <mxCell id="w_KVmcPeoKWREh152ISu-83" value="" style="ellipse;whiteSpace=wrap;html=1;aspect=fixed;fillColor=#ffcccc;strokeColor=#36393d;strokeWidth=2;" parent="1" vertex="1">
          <mxGeometry x="-419.5" y="1880" width="40" height="40" as="geometry" />
        </mxCell>
        <mxCell id="w_KVmcPeoKWREh152ISu-84" style="edgeStyle=none;rounded=0;orthogonalLoop=1;jettySize=auto;html=1;entryX=0.5;entryY=0;entryDx=0;entryDy=0;endArrow=none;endFill=0;fillColor=#ffcccc;strokeColor=#36393d;strokeWidth=2;" parent="1" source="w_KVmcPeoKWREh152ISu-86" target="w_KVmcPeoKWREh152ISu-87" edge="1">
          <mxGeometry relative="1" as="geometry" />
        </mxCell>
        <mxCell id="w_KVmcPeoKWREh152ISu-85" style="edgeStyle=none;rounded=0;orthogonalLoop=1;jettySize=auto;html=1;entryX=0;entryY=0.5;entryDx=0;entryDy=0;endArrow=none;endFill=0;fillColor=#ffcccc;strokeColor=#36393d;strokeWidth=2;" parent="1" source="w_KVmcPeoKWREh152ISu-86" target="w_KVmcPeoKWREh152ISu-88" edge="1">
          <mxGeometry relative="1" as="geometry" />
        </mxCell>
        <mxCell id="w_KVmcPeoKWREh152ISu-86" value="" style="ellipse;whiteSpace=wrap;html=1;aspect=fixed;fillColor=#ffcccc;strokeColor=#36393d;strokeWidth=2;" parent="1" vertex="1">
          <mxGeometry x="-354.5" y="1920" width="40" height="40" as="geometry" />
        </mxCell>
        <mxCell id="w_KVmcPeoKWREh152ISu-87" value="" style="ellipse;whiteSpace=wrap;html=1;aspect=fixed;fillColor=#ffcccc;strokeColor=#36393d;strokeWidth=2;" parent="1" vertex="1">
          <mxGeometry x="-344.5" y="2020" width="40" height="40" as="geometry" />
        </mxCell>
        <mxCell id="w_KVmcPeoKWREh152ISu-88" value="" style="ellipse;whiteSpace=wrap;html=1;aspect=fixed;fillColor=#ffcccc;strokeColor=#36393d;strokeWidth=2;" parent="1" vertex="1">
          <mxGeometry x="-256.5" y="1920" width="40" height="40" as="geometry" />
        </mxCell>
        <mxCell id="w_KVmcPeoKWREh152ISu-89" value="" style="ellipse;whiteSpace=wrap;html=1;aspect=fixed;fillColor=#cce5ff;strokeColor=#36393d;strokeWidth=2;" parent="1" vertex="1">
          <mxGeometry x="-661" y="2792.99" width="40" height="40" as="geometry" />
        </mxCell>
        <mxCell id="w_KVmcPeoKWREh152ISu-90" value="" style="ellipse;whiteSpace=wrap;html=1;aspect=fixed;fillColor=#ffcccc;strokeColor=#36393d;strokeWidth=2;" parent="1" vertex="1">
          <mxGeometry x="-332" y="2759.99" width="40" height="40" as="geometry" />
        </mxCell>
        <mxCell id="w_KVmcPeoKWREh152ISu-99" value="" style="endArrow=none;dashed=1;html=1;rounded=0;entryX=0.5;entryY=1;entryDx=0;entryDy=0;exitX=0.758;exitY=0.027;exitDx=0;exitDy=0;exitPerimeter=0;strokeWidth=6;" parent="1" source="w_KVmcPeoKWREh152ISu-89" target="w_KVmcPeoKWREh152ISu-6" edge="1">
          <mxGeometry width="50" height="50" relative="1" as="geometry">
            <mxPoint x="-637" y="2792.99" as="sourcePoint" />
            <mxPoint x="-607" y="2735.99" as="targetPoint" />
          </mxGeometry>
        </mxCell>
        <mxCell id="w_KVmcPeoKWREh152ISu-100" value="" style="endArrow=none;dashed=1;html=1;rounded=0;entryX=1;entryY=1;entryDx=0;entryDy=0;exitX=0;exitY=0;exitDx=0;exitDy=0;strokeWidth=6;" parent="1" source="w_KVmcPeoKWREh152ISu-90" target="w_KVmcPeoKWREh152ISu-6" edge="1">
          <mxGeometry width="50" height="50" relative="1" as="geometry">
            <mxPoint x="-707" y="2775.99" as="sourcePoint" />
            <mxPoint x="-657" y="2725.99" as="targetPoint" />
          </mxGeometry>
        </mxCell>
        <mxCell id="w_KVmcPeoKWREh152ISu-101" value="" style="endArrow=none;dashed=1;html=1;rounded=0;entryX=0;entryY=1;entryDx=0;entryDy=0;exitX=1;exitY=0.5;exitDx=0;exitDy=0;strokeWidth=6;" parent="1" source="w_KVmcPeoKWREh152ISu-89" target="w_KVmcPeoKWREh152ISu-90" edge="1">
          <mxGeometry width="50" height="50" relative="1" as="geometry">
            <mxPoint x="-667" y="2895.99" as="sourcePoint" />
            <mxPoint x="-617" y="2845.99" as="targetPoint" />
          </mxGeometry>
        </mxCell>
        <mxCell id="w_KVmcPeoKWREh152ISu-102" value="" style="ellipse;whiteSpace=wrap;html=1;strokeWidth=2;" parent="1" vertex="1">
          <mxGeometry x="554.5" y="1470" width="390.5" height="303" as="geometry" />
        </mxCell>
        <mxCell id="w_KVmcPeoKWREh152ISu-103" value="" style="ellipse;whiteSpace=wrap;html=1;rotation=-15;strokeWidth=2;" parent="1" vertex="1">
          <mxGeometry x="788.94" y="1794.0100000000002" width="451.5" height="326.39" as="geometry" />
        </mxCell>
        <mxCell id="w_KVmcPeoKWREh152ISu-104" value="" style="ellipse;whiteSpace=wrap;html=1;strokeWidth=2;" parent="1" vertex="1">
          <mxGeometry x="255" y="1843" width="402" height="343" as="geometry" />
        </mxCell>
        <mxCell id="w_KVmcPeoKWREh152ISu-107" style="edgeStyle=none;rounded=0;orthogonalLoop=1;jettySize=auto;html=1;exitX=1;exitY=0.5;exitDx=0;exitDy=0;entryX=0;entryY=0.5;entryDx=0;entryDy=0;endArrow=none;endFill=0;strokeWidth=2;" parent="1" source="w_KVmcPeoKWREh152ISu-105" target="w_KVmcPeoKWREh152ISu-106" edge="1">
          <mxGeometry relative="1" as="geometry" />
        </mxCell>
        <mxCell id="w_KVmcPeoKWREh152ISu-110" style="edgeStyle=none;rounded=0;orthogonalLoop=1;jettySize=auto;html=1;exitX=1;exitY=1;exitDx=0;exitDy=0;entryX=0;entryY=0;entryDx=0;entryDy=0;endArrow=none;endFill=0;strokeWidth=2;" parent="1" source="w_KVmcPeoKWREh152ISu-105" target="w_KVmcPeoKWREh152ISu-109" edge="1">
          <mxGeometry relative="1" as="geometry" />
        </mxCell>
        <mxCell id="w_KVmcPeoKWREh152ISu-105" value="" style="ellipse;whiteSpace=wrap;html=1;aspect=fixed;fillColor=#cdeb8b;strokeColor=#36393d;strokeWidth=2;" parent="1" vertex="1">
          <mxGeometry x="665.5" y="1533" width="40" height="40" as="geometry" />
        </mxCell>
        <mxCell id="w_KVmcPeoKWREh152ISu-106" value="" style="ellipse;whiteSpace=wrap;html=1;aspect=fixed;fillColor=#cdeb8b;strokeColor=#36393d;strokeWidth=2;" parent="1" vertex="1">
          <mxGeometry x="783" y="1513" width="40" height="40" as="geometry" />
        </mxCell>
        <mxCell id="w_KVmcPeoKWREh152ISu-109" value="" style="ellipse;whiteSpace=wrap;html=1;aspect=fixed;fillColor=#cdeb8b;strokeColor=#36393d;strokeWidth=2;" parent="1" vertex="1">
          <mxGeometry x="743" y="1621.5" width="40" height="40" as="geometry" />
        </mxCell>
        <mxCell id="w_KVmcPeoKWREh152ISu-113" style="edgeStyle=none;rounded=0;orthogonalLoop=1;jettySize=auto;html=1;exitX=0;exitY=0.5;exitDx=0;exitDy=0;entryX=1;entryY=0.5;entryDx=0;entryDy=0;endArrow=none;endFill=0;strokeWidth=2;" parent="1" source="w_KVmcPeoKWREh152ISu-111" target="w_KVmcPeoKWREh152ISu-112" edge="1">
          <mxGeometry relative="1" as="geometry" />
        </mxCell>
        <mxCell id="w_KVmcPeoKWREh152ISu-111" value="" style="ellipse;whiteSpace=wrap;html=1;aspect=fixed;fillColor=#cdeb8b;strokeColor=#36393d;strokeWidth=2;" parent="1" vertex="1">
          <mxGeometry x="939.5" y="1861.6100000000001" width="40" height="40" as="geometry" />
        </mxCell>
        <mxCell id="w_KVmcPeoKWREh152ISu-112" value="" style="ellipse;whiteSpace=wrap;html=1;aspect=fixed;fillColor=#cdeb8b;strokeColor=#36393d;strokeWidth=2;" parent="1" vertex="1">
          <mxGeometry x="842" y="1896.6100000000001" width="40" height="40" as="geometry" />
        </mxCell>
        <mxCell id="w_KVmcPeoKWREh152ISu-115" style="edgeStyle=none;rounded=0;orthogonalLoop=1;jettySize=auto;html=1;entryX=0;entryY=0.5;entryDx=0;entryDy=0;endArrow=none;endFill=0;fillColor=#cdeb8b;strokeColor=#36393d;strokeWidth=2;" parent="1" target="w_KVmcPeoKWREh152ISu-117" edge="1">
          <mxGeometry relative="1" as="geometry">
            <mxPoint x="452" y="1903.6100000000001" as="sourcePoint" />
          </mxGeometry>
        </mxCell>
        <mxCell id="w_KVmcPeoKWREh152ISu-152" style="edgeStyle=orthogonalEdgeStyle;curved=1;orthogonalLoop=1;jettySize=auto;html=1;exitX=1;exitY=0;exitDx=0;exitDy=0;entryX=1;entryY=1;entryDx=0;entryDy=0;dashed=1;startArrow=none;startFill=0;endArrow=classic;endFill=1;endSize=9;strokeColor=#97D077;strokeWidth=6;" parent="1" source="w_KVmcPeoKWREh152ISu-116" target="w_KVmcPeoKWREh152ISu-109" edge="1">
          <mxGeometry relative="1" as="geometry" />
        </mxCell>
        <mxCell id="w_KVmcPeoKWREh152ISu-116" value="" style="ellipse;whiteSpace=wrap;html=1;aspect=fixed;fillColor=#cdeb8b;strokeColor=#36393d;strokeWidth=2;" parent="1" vertex="1">
          <mxGeometry x="409.5" y="1878.6100000000001" width="40" height="40" as="geometry" />
        </mxCell>
        <mxCell id="w_KVmcPeoKWREh152ISu-117" value="" style="ellipse;whiteSpace=wrap;html=1;aspect=fixed;fillColor=#cdeb8b;strokeColor=#36393d;strokeWidth=2;" parent="1" vertex="1">
          <mxGeometry x="522" y="1888.6100000000001" width="40" height="40" as="geometry" />
        </mxCell>
        <mxCell id="w_KVmcPeoKWREh152ISu-118" style="edgeStyle=none;rounded=0;orthogonalLoop=1;jettySize=auto;html=1;entryX=0.5;entryY=0;entryDx=0;entryDy=0;endArrow=none;endFill=0;fillColor=#eeeeee;strokeColor=#36393d;strokeWidth=2;" parent="1" source="w_KVmcPeoKWREh152ISu-119" target="w_KVmcPeoKWREh152ISu-120" edge="1">
          <mxGeometry relative="1" as="geometry" />
        </mxCell>
        <mxCell id="w_KVmcPeoKWREh152ISu-204" style="edgeStyle=orthogonalEdgeStyle;curved=1;orthogonalLoop=1;jettySize=auto;html=1;exitX=0;exitY=0;exitDx=0;exitDy=0;entryX=1;entryY=1;entryDx=0;entryDy=0;dashed=1;startArrow=none;startFill=0;endArrow=classic;endFill=1;endSize=9;strokeColor=#97D077;strokeWidth=6;" parent="1" source="w_KVmcPeoKWREh152ISu-119" target="w_KVmcPeoKWREh152ISu-109" edge="1">
          <mxGeometry relative="1" as="geometry">
            <Array as="points">
              <mxPoint x="848.5" y="1867" />
              <mxPoint x="848.5" y="1656" />
            </Array>
          </mxGeometry>
        </mxCell>
        <mxCell id="w_KVmcPeoKWREh152ISu-119" value="" style="ellipse;whiteSpace=wrap;html=1;aspect=fixed;fillColor=#cdeb8b;strokeColor=#36393d;strokeWidth=2;" parent="1" vertex="1">
          <mxGeometry x="939.5" y="1861.6100000000001" width="40" height="40" as="geometry" />
        </mxCell>
        <mxCell id="w_KVmcPeoKWREh152ISu-120" value="" style="ellipse;whiteSpace=wrap;html=1;aspect=fixed;fillColor=#cce5ff;strokeColor=#36393d;strokeWidth=2;" parent="1" vertex="1">
          <mxGeometry x="954.5" y="1956.6100000000001" width="40" height="40" as="geometry" />
        </mxCell>
        <mxCell id="w_KVmcPeoKWREh152ISu-121" style="edgeStyle=none;rounded=0;orthogonalLoop=1;jettySize=auto;html=1;exitX=0;exitY=0.5;exitDx=0;exitDy=0;entryX=1;entryY=0.5;entryDx=0;entryDy=0;endArrow=none;endFill=0;fillColor=#cce5ff;strokeColor=#36393d;strokeWidth=2;" parent="1" source="w_KVmcPeoKWREh152ISu-122" target="w_KVmcPeoKWREh152ISu-123" edge="1">
          <mxGeometry relative="1" as="geometry" />
        </mxCell>
        <mxCell id="w_KVmcPeoKWREh152ISu-151" style="edgeStyle=orthogonalEdgeStyle;curved=1;orthogonalLoop=1;jettySize=auto;html=1;exitX=0.5;exitY=1;exitDx=0;exitDy=0;entryX=0;entryY=0;entryDx=0;entryDy=0;dashed=1;startArrow=none;startFill=0;endArrow=classic;endFill=1;endSize=9;strokeColor=#7EA6E0;strokeWidth=6;" parent="1" source="w_KVmcPeoKWREh152ISu-122" target="w_KVmcPeoKWREh152ISu-128" edge="1">
          <mxGeometry relative="1" as="geometry" />
        </mxCell>
        <mxCell id="w_KVmcPeoKWREh152ISu-122" value="" style="ellipse;whiteSpace=wrap;html=1;aspect=fixed;fillColor=#cce5ff;strokeColor=#36393d;strokeWidth=2;" parent="1" vertex="1">
          <mxGeometry x="710.5" y="1663" width="40" height="40" as="geometry" />
        </mxCell>
        <mxCell id="w_KVmcPeoKWREh152ISu-123" value="" style="ellipse;whiteSpace=wrap;html=1;aspect=fixed;fillColor=#cce5ff;strokeColor=#36393d;strokeWidth=2;" parent="1" vertex="1">
          <mxGeometry x="583" y="1643" width="40" height="40" as="geometry" />
        </mxCell>
        <mxCell id="w_KVmcPeoKWREh152ISu-124" style="edgeStyle=none;rounded=0;orthogonalLoop=1;jettySize=auto;html=1;endArrow=none;endFill=0;fillColor=#cce5ff;strokeColor=#36393d;strokeWidth=2;" parent="1" target="w_KVmcPeoKWREh152ISu-126" edge="1">
          <mxGeometry relative="1" as="geometry">
            <mxPoint x="967" y="1996.6100000000001" as="sourcePoint" />
          </mxGeometry>
        </mxCell>
        <mxCell id="w_KVmcPeoKWREh152ISu-125" value="" style="ellipse;whiteSpace=wrap;html=1;aspect=fixed;fillColor=#cce5ff;strokeColor=#36393d;strokeWidth=2;" parent="1" vertex="1">
          <mxGeometry x="954.5" y="1956.6100000000001" width="40" height="40" as="geometry" />
        </mxCell>
        <mxCell id="w_KVmcPeoKWREh152ISu-126" value="" style="ellipse;whiteSpace=wrap;html=1;aspect=fixed;fillColor=#cce5ff;strokeColor=#36393d;strokeWidth=2;" parent="1" vertex="1">
          <mxGeometry x="902" y="2056.61" width="40" height="40" as="geometry" />
        </mxCell>
        <mxCell id="w_KVmcPeoKWREh152ISu-127" style="edgeStyle=none;rounded=0;orthogonalLoop=1;jettySize=auto;html=1;exitX=1;exitY=1;exitDx=0;exitDy=0;entryX=0;entryY=0;entryDx=0;entryDy=0;endArrow=none;endFill=0;fillColor=#cce5ff;strokeColor=#36393d;strokeWidth=2;" parent="1" source="w_KVmcPeoKWREh152ISu-128" target="w_KVmcPeoKWREh152ISu-129" edge="1">
          <mxGeometry relative="1" as="geometry" />
        </mxCell>
        <mxCell id="w_KVmcPeoKWREh152ISu-128" value="" style="ellipse;whiteSpace=wrap;html=1;aspect=fixed;fillColor=#cce5ff;strokeColor=#36393d;strokeWidth=2;" parent="1" vertex="1">
          <mxGeometry x="294.5" y="1948.6100000000001" width="40" height="40" as="geometry" />
        </mxCell>
        <mxCell id="w_KVmcPeoKWREh152ISu-129" value="" style="ellipse;whiteSpace=wrap;html=1;aspect=fixed;fillColor=#cce5ff;strokeColor=#36393d;strokeWidth=2;" parent="1" vertex="1">
          <mxGeometry x="369.5" y="2068.61" width="40" height="40" as="geometry" />
        </mxCell>
        <mxCell id="w_KVmcPeoKWREh152ISu-130" style="edgeStyle=none;rounded=0;orthogonalLoop=1;jettySize=auto;html=1;exitX=0.985;exitY=0.66;exitDx=0;exitDy=0;entryX=0;entryY=0.5;entryDx=0;entryDy=0;endArrow=none;endFill=0;exitPerimeter=0;fillColor=#cce5ff;strokeColor=#36393d;strokeWidth=2;" parent="1" source="w_KVmcPeoKWREh152ISu-131" target="w_KVmcPeoKWREh152ISu-132" edge="1">
          <mxGeometry relative="1" as="geometry" />
        </mxCell>
        <mxCell id="w_KVmcPeoKWREh152ISu-131" value="" style="ellipse;whiteSpace=wrap;html=1;aspect=fixed;fillColor=#cce5ff;strokeColor=#36393d;strokeWidth=2;" parent="1" vertex="1">
          <mxGeometry x="369.5" y="2068.61" width="40" height="40" as="geometry" />
        </mxCell>
        <mxCell id="w_KVmcPeoKWREh152ISu-132" value="" style="ellipse;whiteSpace=wrap;html=1;aspect=fixed;fillColor=#cce5ff;strokeColor=#36393d;strokeWidth=2;" parent="1" vertex="1">
          <mxGeometry x="514.5" y="2098.61" width="40" height="40" as="geometry" />
        </mxCell>
        <mxCell id="w_KVmcPeoKWREh152ISu-133" style="edgeStyle=none;rounded=0;orthogonalLoop=1;jettySize=auto;html=1;endArrow=none;endFill=0;fillColor=#cce5ff;strokeColor=#36393d;strokeWidth=2;" parent="1" target="w_KVmcPeoKWREh152ISu-135" edge="1">
          <mxGeometry relative="1" as="geometry">
            <mxPoint x="434.5" y="2008.6100000000001" as="sourcePoint" />
          </mxGeometry>
        </mxCell>
        <mxCell id="w_KVmcPeoKWREh152ISu-134" value="" style="ellipse;whiteSpace=wrap;html=1;aspect=fixed;fillColor=#cce5ff;strokeColor=#36393d;strokeWidth=2;" parent="1" vertex="1">
          <mxGeometry x="422" y="1968.6100000000001" width="40" height="40" as="geometry" />
        </mxCell>
        <mxCell id="w_KVmcPeoKWREh152ISu-135" value="" style="ellipse;whiteSpace=wrap;html=1;aspect=fixed;fillColor=#cce5ff;strokeColor=#36393d;strokeWidth=2;" parent="1" vertex="1">
          <mxGeometry x="369.5" y="2068.61" width="40" height="40" as="geometry" />
        </mxCell>
        <mxCell id="w_KVmcPeoKWREh152ISu-136" style="edgeStyle=none;rounded=0;orthogonalLoop=1;jettySize=auto;html=1;exitX=0.912;exitY=0.71;exitDx=0;exitDy=0;entryX=0.171;entryY=0.285;entryDx=0;entryDy=0;endArrow=none;endFill=0;exitPerimeter=0;fillColor=#ffcccc;strokeColor=#36393d;entryPerimeter=0;strokeWidth=2;" parent="1" source="w_KVmcPeoKWREh152ISu-137" target="w_KVmcPeoKWREh152ISu-139" edge="1">
          <mxGeometry relative="1" as="geometry">
            <mxPoint x="1085.357864376269" y="1917.467864376269" as="targetPoint" />
          </mxGeometry>
        </mxCell>
        <mxCell id="w_KVmcPeoKWREh152ISu-137" value="" style="ellipse;whiteSpace=wrap;html=1;aspect=fixed;fillColor=#ffcccc;strokeColor=#36393d;strokeWidth=2;" parent="1" vertex="1">
          <mxGeometry x="1014.5" y="1871.6100000000001" width="40" height="40" as="geometry" />
        </mxCell>
        <mxCell id="w_KVmcPeoKWREh152ISu-138" style="edgeStyle=none;rounded=0;orthogonalLoop=1;jettySize=auto;html=1;entryX=0;entryY=0.5;entryDx=0;entryDy=0;endArrow=none;endFill=0;fillColor=#ffcccc;strokeColor=#36393d;strokeWidth=2;" parent="1" target="w_KVmcPeoKWREh152ISu-140" edge="1">
          <mxGeometry relative="1" as="geometry">
            <mxPoint x="1118.5" y="1932" as="sourcePoint" />
          </mxGeometry>
        </mxCell>
        <mxCell id="w_KVmcPeoKWREh152ISu-139" value="" style="ellipse;whiteSpace=wrap;html=1;aspect=fixed;fillColor=#ffcccc;strokeColor=#36393d;strokeWidth=2;" parent="1" vertex="1">
          <mxGeometry x="1078.5" y="1908.6100000000001" width="40" height="40" as="geometry" />
        </mxCell>
        <mxCell id="w_KVmcPeoKWREh152ISu-140" value="" style="ellipse;whiteSpace=wrap;html=1;aspect=fixed;fillColor=#ffcccc;strokeColor=#36393d;strokeWidth=2;" parent="1" vertex="1">
          <mxGeometry x="1177.5" y="1911.6100000000001" width="40" height="40" as="geometry" />
        </mxCell>
        <mxCell id="w_KVmcPeoKWREh152ISu-141" style="edgeStyle=none;rounded=0;orthogonalLoop=1;jettySize=auto;html=1;entryX=0.5;entryY=0;entryDx=0;entryDy=0;endArrow=none;endFill=0;fillColor=#ffcccc;strokeColor=#36393d;strokeWidth=2;" parent="1" source="w_KVmcPeoKWREh152ISu-142" target="w_KVmcPeoKWREh152ISu-143" edge="1">
          <mxGeometry relative="1" as="geometry" />
        </mxCell>
        <mxCell id="w_KVmcPeoKWREh152ISu-156" style="edgeStyle=orthogonalEdgeStyle;curved=1;orthogonalLoop=1;jettySize=auto;html=1;exitX=1;exitY=0.5;exitDx=0;exitDy=0;dashed=1;startArrow=none;startFill=0;endArrow=classic;endFill=1;endSize=9;strokeColor=#FFCCCC;strokeWidth=6;" parent="1" source="w_KVmcPeoKWREh152ISu-142" edge="1">
          <mxGeometry relative="1" as="geometry">
            <mxPoint x="1099.5" y="1951.6100000000001" as="targetPoint" />
            <Array as="points">
              <mxPoint x="705" y="1979" />
              <mxPoint x="705" y="2133" />
              <mxPoint x="1100" y="2133" />
            </Array>
          </mxGeometry>
        </mxCell>
        <mxCell id="w_KVmcPeoKWREh152ISu-142" value="" style="ellipse;whiteSpace=wrap;html=1;aspect=fixed;fillColor=#ffcccc;strokeColor=#36393d;strokeWidth=2;" parent="1" vertex="1">
          <mxGeometry x="532" y="1958.6100000000001" width="40" height="40" as="geometry" />
        </mxCell>
        <mxCell id="w_KVmcPeoKWREh152ISu-143" value="" style="ellipse;whiteSpace=wrap;html=1;aspect=fixed;fillColor=#ffcccc;strokeColor=#36393d;strokeWidth=2;" parent="1" vertex="1">
          <mxGeometry x="542" y="2058.61" width="40" height="40" as="geometry" />
        </mxCell>
        <mxCell id="w_KVmcPeoKWREh152ISu-144" style="edgeStyle=none;rounded=0;orthogonalLoop=1;jettySize=auto;html=1;entryX=0.125;entryY=0.25;entryDx=0;entryDy=0;endArrow=none;endFill=0;entryPerimeter=0;fillColor=#eeeeee;strokeColor=#36393d;strokeWidth=2;" parent="1" target="w_KVmcPeoKWREh152ISu-146" edge="1">
          <mxGeometry relative="1" as="geometry">
            <mxPoint x="832.5" y="1631.5" as="sourcePoint" />
          </mxGeometry>
        </mxCell>
        <mxCell id="w_KVmcPeoKWREh152ISu-145" value="" style="ellipse;whiteSpace=wrap;html=1;aspect=fixed;fillColor=#cce5ff;strokeColor=#36393d;strokeWidth=2;" parent="1" vertex="1">
          <mxGeometry x="795" y="1601.5" width="40" height="40" as="geometry" />
        </mxCell>
        <mxCell id="w_KVmcPeoKWREh152ISu-205" style="edgeStyle=orthogonalEdgeStyle;curved=1;orthogonalLoop=1;jettySize=auto;html=1;exitX=1;exitY=1;exitDx=0;exitDy=0;entryX=0;entryY=0;entryDx=0;entryDy=0;dashed=1;startArrow=none;startFill=0;endArrow=classic;endFill=1;endSize=9;strokeColor=#FFCCCC;strokeWidth=6;" parent="1" source="w_KVmcPeoKWREh152ISu-146" target="w_KVmcPeoKWREh152ISu-137" edge="1">
          <mxGeometry relative="1" as="geometry" />
        </mxCell>
        <mxCell id="w_KVmcPeoKWREh152ISu-146" value="" style="ellipse;whiteSpace=wrap;html=1;aspect=fixed;fillColor=#ffcccc;strokeColor=#36393d;strokeWidth=2;" parent="1" vertex="1">
          <mxGeometry x="867.5" y="1641.5" width="40" height="40" as="geometry" />
        </mxCell>
        <mxCell id="w_KVmcPeoKWREh152ISu-158" value="" style="ellipse;whiteSpace=wrap;html=1;strokeWidth=2;" parent="1" vertex="1">
          <mxGeometry x="628" y="2350" width="340" height="410" as="geometry" />
        </mxCell>
        <mxCell id="w_KVmcPeoKWREh152ISu-159" value="" style="ellipse;whiteSpace=wrap;html=1;rotation=-15;strokeWidth=2;" parent="1" vertex="1">
          <mxGeometry x="920" y="2720" width="380" height="345.99" as="geometry" />
        </mxCell>
        <mxCell id="w_KVmcPeoKWREh152ISu-160" value="" style="ellipse;whiteSpace=wrap;html=1;strokeWidth=2;" parent="1" vertex="1">
          <mxGeometry x="337" y="2790" width="370" height="310" as="geometry" />
        </mxCell>
        <mxCell id="w_KVmcPeoKWREh152ISu-161" style="edgeStyle=none;rounded=0;orthogonalLoop=1;jettySize=auto;html=1;exitX=1;exitY=0.5;exitDx=0;exitDy=0;entryX=0;entryY=0.5;entryDx=0;entryDy=0;endArrow=none;endFill=0;strokeWidth=2;" parent="1" source="w_KVmcPeoKWREh152ISu-163" target="w_KVmcPeoKWREh152ISu-164" edge="1">
          <mxGeometry relative="1" as="geometry" />
        </mxCell>
        <mxCell id="w_KVmcPeoKWREh152ISu-162" style="edgeStyle=none;rounded=0;orthogonalLoop=1;jettySize=auto;html=1;exitX=1;exitY=1;exitDx=0;exitDy=0;entryX=0;entryY=0;entryDx=0;entryDy=0;endArrow=none;endFill=0;strokeWidth=2;" parent="1" source="w_KVmcPeoKWREh152ISu-163" target="w_KVmcPeoKWREh152ISu-165" edge="1">
          <mxGeometry relative="1" as="geometry" />
        </mxCell>
        <mxCell id="w_KVmcPeoKWREh152ISu-163" value="" style="ellipse;whiteSpace=wrap;html=1;aspect=fixed;fillColor=#cdeb8b;strokeColor=#36393d;strokeWidth=2;" parent="1" vertex="1">
          <mxGeometry x="713.06" y="2413" width="40" height="40" as="geometry" />
        </mxCell>
        <mxCell id="w_KVmcPeoKWREh152ISu-164" value="" style="ellipse;whiteSpace=wrap;html=1;aspect=fixed;fillColor=#cdeb8b;strokeColor=#36393d;strokeWidth=2;" parent="1" vertex="1">
          <mxGeometry x="830.56" y="2393" width="40" height="40" as="geometry" />
        </mxCell>
        <mxCell id="w_KVmcPeoKWREh152ISu-165" value="" style="ellipse;whiteSpace=wrap;html=1;aspect=fixed;fillColor=#cdeb8b;strokeColor=#36393d;strokeWidth=2;" parent="1" vertex="1">
          <mxGeometry x="790.56" y="2501.5" width="40" height="40" as="geometry" />
        </mxCell>
        <mxCell id="w_KVmcPeoKWREh152ISu-166" style="edgeStyle=none;rounded=0;orthogonalLoop=1;jettySize=auto;html=1;exitX=0;exitY=0.5;exitDx=0;exitDy=0;entryX=1;entryY=0.5;entryDx=0;entryDy=0;endArrow=none;endFill=0;strokeWidth=2;" parent="1" source="w_KVmcPeoKWREh152ISu-167" target="w_KVmcPeoKWREh152ISu-168" edge="1">
          <mxGeometry relative="1" as="geometry" />
        </mxCell>
        <mxCell id="w_KVmcPeoKWREh152ISu-167" value="" style="ellipse;whiteSpace=wrap;html=1;aspect=fixed;fillColor=#cdeb8b;strokeColor=#36393d;strokeWidth=2;" parent="1" vertex="1">
          <mxGeometry x="790.56" y="2501.5" width="40" height="40" as="geometry" />
        </mxCell>
        <mxCell id="w_KVmcPeoKWREh152ISu-168" value="" style="ellipse;whiteSpace=wrap;html=1;aspect=fixed;fillColor=#cdeb8b;strokeColor=#36393d;strokeWidth=2;" parent="1" vertex="1">
          <mxGeometry x="689" y="2536.5" width="40" height="40" as="geometry" />
        </mxCell>
        <mxCell id="w_KVmcPeoKWREh152ISu-169" style="edgeStyle=none;rounded=0;orthogonalLoop=1;jettySize=auto;html=1;entryX=0;entryY=0.5;entryDx=0;entryDy=0;endArrow=none;endFill=0;fillColor=#cdeb8b;strokeColor=#36393d;exitX=1;exitY=0.5;exitDx=0;exitDy=0;strokeWidth=2;" parent="1" source="w_KVmcPeoKWREh152ISu-171" target="w_KVmcPeoKWREh152ISu-172" edge="1">
          <mxGeometry relative="1" as="geometry">
            <mxPoint x="833.06" y="2526.5" as="sourcePoint" />
          </mxGeometry>
        </mxCell>
        <mxCell id="w_KVmcPeoKWREh152ISu-171" value="" style="ellipse;whiteSpace=wrap;html=1;aspect=fixed;fillColor=#cdeb8b;strokeColor=#36393d;strokeWidth=2;" parent="1" vertex="1">
          <mxGeometry x="790.56" y="2501.5" width="40" height="40" as="geometry" />
        </mxCell>
        <mxCell id="w_KVmcPeoKWREh152ISu-172" value="" style="ellipse;whiteSpace=wrap;html=1;aspect=fixed;fillColor=#cdeb8b;strokeColor=#36393d;strokeWidth=2;" parent="1" vertex="1">
          <mxGeometry x="889.56" y="2517" width="40" height="40" as="geometry" />
        </mxCell>
        <mxCell id="w_KVmcPeoKWREh152ISu-173" style="edgeStyle=none;rounded=0;orthogonalLoop=1;jettySize=auto;html=1;entryX=0.5;entryY=0;entryDx=0;entryDy=0;endArrow=none;endFill=0;fillColor=#eeeeee;strokeColor=#36393d;strokeWidth=2;" parent="1" source="w_KVmcPeoKWREh152ISu-174" target="w_KVmcPeoKWREh152ISu-175" edge="1">
          <mxGeometry relative="1" as="geometry" />
        </mxCell>
        <mxCell id="w_KVmcPeoKWREh152ISu-174" value="" style="ellipse;whiteSpace=wrap;html=1;aspect=fixed;fillColor=#cdeb8b;strokeColor=#36393d;strokeWidth=2;" parent="1" vertex="1">
          <mxGeometry x="790.56" y="2501.5" width="40" height="40" as="geometry" />
        </mxCell>
        <mxCell id="w_KVmcPeoKWREh152ISu-175" value="" style="ellipse;whiteSpace=wrap;html=1;aspect=fixed;fillColor=#cce5ff;strokeColor=#36393d;strokeWidth=2;" parent="1" vertex="1">
          <mxGeometry x="801.5" y="2596.5" width="40" height="40" as="geometry" />
        </mxCell>
        <mxCell id="w_KVmcPeoKWREh152ISu-176" style="edgeStyle=none;rounded=0;orthogonalLoop=1;jettySize=auto;html=1;exitX=0;exitY=0.5;exitDx=0;exitDy=0;entryX=1;entryY=0.5;entryDx=0;entryDy=0;endArrow=none;endFill=0;fillColor=#cce5ff;strokeColor=#36393d;strokeWidth=2;" parent="1" source="w_KVmcPeoKWREh152ISu-178" target="w_KVmcPeoKWREh152ISu-179" edge="1">
          <mxGeometry relative="1" as="geometry" />
        </mxCell>
        <mxCell id="w_KVmcPeoKWREh152ISu-178" value="" style="ellipse;whiteSpace=wrap;html=1;aspect=fixed;fillColor=#cce5ff;strokeColor=#36393d;strokeWidth=2;" parent="1" vertex="1">
          <mxGeometry x="504" y="2875.61" width="40" height="40" as="geometry" />
        </mxCell>
        <mxCell id="w_KVmcPeoKWREh152ISu-179" value="" style="ellipse;whiteSpace=wrap;html=1;aspect=fixed;fillColor=#cce5ff;strokeColor=#36393d;strokeWidth=2;" parent="1" vertex="1">
          <mxGeometry x="376.5" y="2855.61" width="40" height="40" as="geometry" />
        </mxCell>
        <mxCell id="w_KVmcPeoKWREh152ISu-180" style="edgeStyle=none;rounded=0;orthogonalLoop=1;jettySize=auto;html=1;endArrow=none;endFill=0;fillColor=#cce5ff;strokeColor=#36393d;strokeWidth=2;" parent="1" target="w_KVmcPeoKWREh152ISu-182" edge="1">
          <mxGeometry relative="1" as="geometry">
            <mxPoint x="814" y="2636.5" as="sourcePoint" />
          </mxGeometry>
        </mxCell>
        <mxCell id="w_KVmcPeoKWREh152ISu-181" value="" style="ellipse;whiteSpace=wrap;html=1;aspect=fixed;fillColor=#cce5ff;strokeColor=#36393d;strokeWidth=2;" parent="1" vertex="1">
          <mxGeometry x="801.5" y="2596.5" width="40" height="40" as="geometry" />
        </mxCell>
        <mxCell id="w_KVmcPeoKWREh152ISu-211" style="edgeStyle=orthogonalEdgeStyle;curved=1;orthogonalLoop=1;jettySize=auto;html=1;exitX=0;exitY=1;exitDx=0;exitDy=0;entryX=1;entryY=0;entryDx=0;entryDy=0;fontFamily=Comic Sans MS;fontSize=48;startArrow=none;startFill=0;endArrow=classic;endFill=1;endSize=9;strokeColor=#7EA6E0;strokeWidth=6;dashed=1;" parent="1" source="w_KVmcPeoKWREh152ISu-182" target="w_KVmcPeoKWREh152ISu-190" edge="1">
          <mxGeometry relative="1" as="geometry" />
        </mxCell>
        <mxCell id="w_KVmcPeoKWREh152ISu-182" value="" style="ellipse;whiteSpace=wrap;html=1;aspect=fixed;fillColor=#cce5ff;strokeColor=#36393d;strokeWidth=2;" parent="1" vertex="1">
          <mxGeometry x="749" y="2696.5" width="40" height="40" as="geometry" />
        </mxCell>
        <mxCell id="w_KVmcPeoKWREh152ISu-183" style="edgeStyle=none;rounded=0;orthogonalLoop=1;jettySize=auto;html=1;exitX=1;exitY=1;exitDx=0;exitDy=0;entryX=0;entryY=0;entryDx=0;entryDy=0;endArrow=none;endFill=0;fillColor=#cce5ff;strokeColor=#36393d;strokeWidth=2;" parent="1" source="w_KVmcPeoKWREh152ISu-184" target="w_KVmcPeoKWREh152ISu-185" edge="1">
          <mxGeometry relative="1" as="geometry" />
        </mxCell>
        <mxCell id="w_KVmcPeoKWREh152ISu-184" value="" style="ellipse;whiteSpace=wrap;html=1;aspect=fixed;fillColor=#cce5ff;strokeColor=#36393d;strokeWidth=2;" parent="1" vertex="1">
          <mxGeometry x="376.5" y="2855.61" width="40" height="40" as="geometry" />
        </mxCell>
        <mxCell id="w_KVmcPeoKWREh152ISu-185" value="" style="ellipse;whiteSpace=wrap;html=1;aspect=fixed;fillColor=#cce5ff;strokeColor=#36393d;strokeWidth=2;" parent="1" vertex="1">
          <mxGeometry x="451.5" y="2975.61" width="40" height="40" as="geometry" />
        </mxCell>
        <mxCell id="w_KVmcPeoKWREh152ISu-186" style="edgeStyle=none;rounded=0;orthogonalLoop=1;jettySize=auto;html=1;exitX=0.985;exitY=0.66;exitDx=0;exitDy=0;entryX=0;entryY=0.5;entryDx=0;entryDy=0;endArrow=none;endFill=0;exitPerimeter=0;fillColor=#cce5ff;strokeColor=#36393d;strokeWidth=2;" parent="1" source="w_KVmcPeoKWREh152ISu-187" target="w_KVmcPeoKWREh152ISu-188" edge="1">
          <mxGeometry relative="1" as="geometry" />
        </mxCell>
        <mxCell id="w_KVmcPeoKWREh152ISu-187" value="" style="ellipse;whiteSpace=wrap;html=1;aspect=fixed;fillColor=#cce5ff;strokeColor=#36393d;strokeWidth=2;" parent="1" vertex="1">
          <mxGeometry x="451.5" y="2975.61" width="40" height="40" as="geometry" />
        </mxCell>
        <mxCell id="w_KVmcPeoKWREh152ISu-188" value="" style="ellipse;whiteSpace=wrap;html=1;aspect=fixed;fillColor=#cce5ff;strokeColor=#36393d;strokeWidth=2;" parent="1" vertex="1">
          <mxGeometry x="596.5" y="3005.61" width="40" height="40" as="geometry" />
        </mxCell>
        <mxCell id="w_KVmcPeoKWREh152ISu-189" style="edgeStyle=none;rounded=0;orthogonalLoop=1;jettySize=auto;html=1;endArrow=none;endFill=0;fillColor=#cce5ff;strokeColor=#36393d;strokeWidth=2;" parent="1" target="w_KVmcPeoKWREh152ISu-191" edge="1">
          <mxGeometry relative="1" as="geometry">
            <mxPoint x="516.5" y="2915.61" as="sourcePoint" />
          </mxGeometry>
        </mxCell>
        <mxCell id="w_KVmcPeoKWREh152ISu-190" value="" style="ellipse;whiteSpace=wrap;html=1;aspect=fixed;fillColor=#cce5ff;strokeColor=#36393d;strokeWidth=2;" parent="1" vertex="1">
          <mxGeometry x="504" y="2875.61" width="40" height="40" as="geometry" />
        </mxCell>
        <mxCell id="w_KVmcPeoKWREh152ISu-191" value="" style="ellipse;whiteSpace=wrap;html=1;aspect=fixed;fillColor=#cce5ff;strokeColor=#36393d;strokeWidth=2;" parent="1" vertex="1">
          <mxGeometry x="451.5" y="2975.61" width="40" height="40" as="geometry" />
        </mxCell>
        <mxCell id="w_KVmcPeoKWREh152ISu-192" style="edgeStyle=none;rounded=0;orthogonalLoop=1;jettySize=auto;html=1;exitX=0.912;exitY=0.71;exitDx=0;exitDy=0;entryX=0.171;entryY=0.285;entryDx=0;entryDy=0;endArrow=none;endFill=0;exitPerimeter=0;fillColor=#ffcccc;strokeColor=#36393d;entryPerimeter=0;strokeWidth=2;" parent="1" source="w_KVmcPeoKWREh152ISu-193" target="w_KVmcPeoKWREh152ISu-195" edge="1">
          <mxGeometry relative="1" as="geometry">
            <mxPoint x="1138.9178643762689" y="2877.467864376269" as="targetPoint" />
          </mxGeometry>
        </mxCell>
        <mxCell id="w_KVmcPeoKWREh152ISu-193" value="" style="ellipse;whiteSpace=wrap;html=1;aspect=fixed;fillColor=#ffcccc;strokeColor=#36393d;strokeWidth=2;" parent="1" vertex="1">
          <mxGeometry x="1068.06" y="2831.61" width="40" height="40" as="geometry" />
        </mxCell>
        <mxCell id="w_KVmcPeoKWREh152ISu-194" style="edgeStyle=none;rounded=0;orthogonalLoop=1;jettySize=auto;html=1;entryX=0;entryY=0.5;entryDx=0;entryDy=0;endArrow=none;endFill=0;fillColor=#ffcccc;strokeColor=#36393d;strokeWidth=2;" parent="1" target="w_KVmcPeoKWREh152ISu-196" edge="1">
          <mxGeometry relative="1" as="geometry">
            <mxPoint x="1172.06" y="2891.9999999999995" as="sourcePoint" />
          </mxGeometry>
        </mxCell>
        <mxCell id="w_KVmcPeoKWREh152ISu-195" value="" style="ellipse;whiteSpace=wrap;html=1;aspect=fixed;fillColor=#ffcccc;strokeColor=#36393d;strokeWidth=2;" parent="1" vertex="1">
          <mxGeometry x="1132.06" y="2868.61" width="40" height="40" as="geometry" />
        </mxCell>
        <mxCell id="w_KVmcPeoKWREh152ISu-196" value="" style="ellipse;whiteSpace=wrap;html=1;aspect=fixed;fillColor=#ffcccc;strokeColor=#36393d;strokeWidth=2;" parent="1" vertex="1">
          <mxGeometry x="1231.06" y="2871.61" width="40" height="40" as="geometry" />
        </mxCell>
        <mxCell id="w_KVmcPeoKWREh152ISu-197" style="edgeStyle=none;rounded=0;orthogonalLoop=1;jettySize=auto;html=1;entryX=0.5;entryY=0;entryDx=0;entryDy=0;endArrow=none;endFill=0;fillColor=#ffcccc;strokeColor=#36393d;strokeWidth=2;" parent="1" source="w_KVmcPeoKWREh152ISu-199" target="w_KVmcPeoKWREh152ISu-200" edge="1">
          <mxGeometry relative="1" as="geometry" />
        </mxCell>
        <mxCell id="w_KVmcPeoKWREh152ISu-199" value="" style="ellipse;whiteSpace=wrap;html=1;aspect=fixed;fillColor=#ffcccc;strokeColor=#36393d;strokeWidth=2;" parent="1" vertex="1">
          <mxGeometry x="1132.06" y="2868.61" width="40" height="40" as="geometry" />
        </mxCell>
        <mxCell id="w_KVmcPeoKWREh152ISu-200" value="" style="ellipse;whiteSpace=wrap;html=1;aspect=fixed;fillColor=#ffcccc;strokeColor=#36393d;strokeWidth=2;" parent="1" vertex="1">
          <mxGeometry x="1142.06" y="2968.61" width="40" height="40" as="geometry" />
        </mxCell>
        <mxCell id="w_KVmcPeoKWREh152ISu-201" style="edgeStyle=none;rounded=0;orthogonalLoop=1;jettySize=auto;html=1;entryX=0.125;entryY=0.25;entryDx=0;entryDy=0;endArrow=none;endFill=0;entryPerimeter=0;fillColor=#eeeeee;strokeColor=#36393d;strokeWidth=2;" parent="1" target="w_KVmcPeoKWREh152ISu-203" edge="1">
          <mxGeometry relative="1" as="geometry">
            <mxPoint x="1024" y="2820" as="sourcePoint" />
          </mxGeometry>
        </mxCell>
        <mxCell id="w_KVmcPeoKWREh152ISu-202" value="" style="ellipse;whiteSpace=wrap;html=1;aspect=fixed;fillColor=#cce5ff;strokeColor=#36393d;strokeWidth=2;" parent="1" vertex="1">
          <mxGeometry x="1004" y="2791.61" width="40" height="40" as="geometry" />
        </mxCell>
        <mxCell id="w_KVmcPeoKWREh152ISu-203" value="" style="ellipse;whiteSpace=wrap;html=1;aspect=fixed;fillColor=#ffcccc;strokeColor=#36393d;strokeWidth=2;" parent="1" vertex="1">
          <mxGeometry x="1067.5" y="2831.61" width="40" height="40" as="geometry" />
        </mxCell>
        <mxCell id="w_KVmcPeoKWREh152ISu-207" value="&lt;font style=&quot;font-size: 48px&quot; face=&quot;Comic Sans MS&quot; color=&quot;#4d4d4d&quot;&gt;transfer&lt;/font&gt;" style="text;html=1;strokeColor=none;fillColor=none;align=center;verticalAlign=middle;whiteSpace=wrap;rounded=0;" parent="1" vertex="1">
          <mxGeometry x="1400" y="2320" width="75" height="42" as="geometry" />
        </mxCell>
        <mxCell id="w_KVmcPeoKWREh152ISu-209" value="" style="endArrow=none;html=1;fontFamily=Comic Sans MS;fontSize=48;endSize=9;strokeColor=#000000;strokeWidth=2;curved=1;" parent="1" edge="1">
          <mxGeometry width="50" height="50" relative="1" as="geometry">
            <mxPoint x="765.25" y="2646.5" as="sourcePoint" />
            <mxPoint x="830.75" y="2696.5" as="targetPoint" />
          </mxGeometry>
        </mxCell>
        <mxCell id="w_KVmcPeoKWREh152ISu-210" value="&lt;font face=&quot;Comic Sans MS&quot; color=&quot;#4d4d4d&quot;&gt;&lt;span style=&quot;font-size: 48px&quot;&gt;balancing&lt;/span&gt;&lt;/font&gt;" style="text;html=1;strokeColor=none;fillColor=none;align=center;verticalAlign=middle;whiteSpace=wrap;rounded=0;" parent="1" vertex="1">
          <mxGeometry x="85" y="2531" width="75" height="42" as="geometry" />
        </mxCell>
        <mxCell id="w_KVmcPeoKWREh152ISu-212" value="&lt;font color=&quot;#4d4d4d&quot;&gt;raw graph&lt;/font&gt;" style="text;html=1;align=center;verticalAlign=middle;whiteSpace=wrap;rounded=0;fontFamily=Comic Sans MS;fontSize=48;" parent="1" vertex="1">
          <mxGeometry x="-1046.5" y="1820" width="310" height="30" as="geometry" />
        </mxCell>
        <mxCell id="w_KVmcPeoKWREh152ISu-214" value="&lt;font style=&quot;font-size: 48px&quot; face=&quot;Comic Sans MS&quot;&gt;random partition&lt;/font&gt;" style="text;html=1;align=center;verticalAlign=middle;whiteSpace=wrap;rounded=0;" parent="1" vertex="1">
          <mxGeometry x="-92.5" y="1720" width="75" height="42" as="geometry" />
        </mxCell>
        <mxCell id="mJxSs9lJf7yy_aO9zKj6-3" value="&lt;font&gt;&lt;font style=&quot;font-size: 48px&quot;&gt;&lt;br&gt;&lt;/font&gt;&lt;br&gt;&lt;br&gt;&lt;span style=&quot;font-size: 36px&quot;&gt;哈希划分&lt;br&gt;&lt;/span&gt;&lt;br&gt;&lt;br&gt;&lt;br&gt;&lt;span style=&quot;font-size: 36px&quot;&gt;树划分&lt;br&gt;&lt;/span&gt;&lt;br&gt;&lt;br&gt;&lt;br&gt;&lt;span style=&quot;font-size: 36px&quot;&gt;随机游走划分&lt;/span&gt;&lt;/font&gt;" style="rounded=1;whiteSpace=wrap;html=1;fillColor=#ffe6cc;strokeColor=#d79b00;strokeWidth=3;" vertex="1" parent="1">
          <mxGeometry x="-990" y="910" width="330" height="440" as="geometry" />
        </mxCell>
        <mxCell id="mJxSs9lJf7yy_aO9zKj6-4" value="&lt;span style=&quot;color: rgb(0 , 0 , 0) ; font-family: &amp;#34;helvetica&amp;#34; ; font-size: 48.000003814697266px ; font-style: normal ; font-weight: normal ; letter-spacing: normal ; text-align: center ; text-indent: 0px ; text-transform: none ; word-spacing: 0px ; text-decoration: none ; display: inline ; float: none&quot;&gt;划分模块&lt;/span&gt;" style="text;html=1;strokeColor=none;fillColor=#ffe6cc;align=center;verticalAlign=middle;whiteSpace=wrap;rounded=0;fontSize=48;" vertex="1" parent="1">
          <mxGeometry x="-971" y="965" width="300" height="30" as="geometry" />
        </mxCell>
        <mxCell id="mJxSs9lJf7yy_aO9zKj6-9" style="edgeStyle=none;rounded=0;orthogonalLoop=1;jettySize=auto;html=1;entryX=1;entryY=0.5;entryDx=0;entryDy=0;endArrow=none;endFill=0;fillColor=#cdeb8b;strokeColor=#36393d;strokeWidth=2;" edge="1" parent="1" target="mJxSs9lJf7yy_aO9zKj6-17">
          <mxGeometry relative="1" as="geometry">
            <mxPoint x="-757" y="3710" as="sourcePoint" />
          </mxGeometry>
        </mxCell>
        <mxCell id="mJxSs9lJf7yy_aO9zKj6-10" style="edgeStyle=none;rounded=0;orthogonalLoop=1;jettySize=auto;html=1;entryX=0;entryY=0.5;entryDx=0;entryDy=0;endArrow=none;endFill=0;fillColor=#cdeb8b;strokeColor=#36393d;strokeWidth=2;" edge="1" parent="1" target="mJxSs9lJf7yy_aO9zKj6-18">
          <mxGeometry relative="1" as="geometry">
            <mxPoint x="-719.9999999999995" y="3710" as="sourcePoint" />
          </mxGeometry>
        </mxCell>
        <mxCell id="mJxSs9lJf7yy_aO9zKj6-11" style="edgeStyle=none;rounded=0;orthogonalLoop=1;jettySize=auto;html=1;entryX=0.5;entryY=0;entryDx=0;entryDy=0;endArrow=none;endFill=0;fillColor=#eeeeee;strokeColor=#36393d;strokeWidth=2;" edge="1" parent="1" source="mJxSs9lJf7yy_aO9zKj6-12" target="mJxSs9lJf7yy_aO9zKj6-21">
          <mxGeometry relative="1" as="geometry" />
        </mxCell>
        <mxCell id="mJxSs9lJf7yy_aO9zKj6-12" value="" style="ellipse;whiteSpace=wrap;html=1;aspect=fixed;fillColor=#cdeb8b;strokeColor=#36393d;strokeWidth=2;" vertex="1" parent="1">
          <mxGeometry x="-762.5" y="3685" width="40" height="40" as="geometry" />
        </mxCell>
        <mxCell id="mJxSs9lJf7yy_aO9zKj6-13" style="edgeStyle=none;rounded=0;orthogonalLoop=1;jettySize=auto;html=1;exitX=1;exitY=1;exitDx=0;exitDy=0;entryX=0;entryY=0;entryDx=0;entryDy=0;endArrow=none;endFill=0;fillColor=#cdeb8b;strokeColor=#36393d;strokeWidth=2;" edge="1" parent="1" source="mJxSs9lJf7yy_aO9zKj6-15" target="mJxSs9lJf7yy_aO9zKj6-12">
          <mxGeometry relative="1" as="geometry" />
        </mxCell>
        <mxCell id="mJxSs9lJf7yy_aO9zKj6-14" style="edgeStyle=none;rounded=0;orthogonalLoop=1;jettySize=auto;html=1;exitX=1;exitY=0.5;exitDx=0;exitDy=0;entryX=0;entryY=0.5;entryDx=0;entryDy=0;endArrow=none;endFill=0;fillColor=#cdeb8b;strokeColor=#36393d;strokeWidth=2;" edge="1" parent="1" source="mJxSs9lJf7yy_aO9zKj6-15" target="mJxSs9lJf7yy_aO9zKj6-16">
          <mxGeometry relative="1" as="geometry" />
        </mxCell>
        <mxCell id="mJxSs9lJf7yy_aO9zKj6-15" value="" style="ellipse;whiteSpace=wrap;html=1;aspect=fixed;fillColor=#cdeb8b;strokeColor=#36393d;strokeWidth=2;" vertex="1" parent="1">
          <mxGeometry x="-825" y="3600" width="40" height="40" as="geometry" />
        </mxCell>
        <mxCell id="mJxSs9lJf7yy_aO9zKj6-16" value="" style="ellipse;whiteSpace=wrap;html=1;aspect=fixed;fillColor=#cdeb8b;strokeColor=#36393d;strokeWidth=2;" vertex="1" parent="1">
          <mxGeometry x="-707.5" y="3580" width="40" height="40" as="geometry" />
        </mxCell>
        <mxCell id="mJxSs9lJf7yy_aO9zKj6-17" value="" style="ellipse;whiteSpace=wrap;html=1;aspect=fixed;fillColor=#cdeb8b;strokeColor=#36393d;strokeWidth=2;" vertex="1" parent="1">
          <mxGeometry x="-860" y="3720" width="40" height="40" as="geometry" />
        </mxCell>
        <mxCell id="mJxSs9lJf7yy_aO9zKj6-18" value="" style="ellipse;whiteSpace=wrap;html=1;aspect=fixed;fillColor=#cdeb8b;strokeColor=#36393d;strokeWidth=2;" vertex="1" parent="1">
          <mxGeometry x="-650" y="3695" width="40" height="40" as="geometry" />
        </mxCell>
        <mxCell id="mJxSs9lJf7yy_aO9zKj6-19" style="edgeStyle=none;rounded=0;orthogonalLoop=1;jettySize=auto;html=1;exitX=0;exitY=1;exitDx=0;exitDy=0;entryX=1;entryY=0;entryDx=0;entryDy=0;endArrow=none;endFill=0;fillColor=#cce5ff;strokeColor=#36393d;strokeWidth=2;" edge="1" parent="1" source="mJxSs9lJf7yy_aO9zKj6-21" target="mJxSs9lJf7yy_aO9zKj6-24">
          <mxGeometry relative="1" as="geometry" />
        </mxCell>
        <mxCell id="mJxSs9lJf7yy_aO9zKj6-20" style="edgeStyle=none;rounded=0;orthogonalLoop=1;jettySize=auto;html=1;entryX=0.125;entryY=0.25;entryDx=0;entryDy=0;endArrow=none;endFill=0;entryPerimeter=0;fillColor=#eeeeee;strokeColor=#36393d;strokeWidth=2;" edge="1" parent="1" target="mJxSs9lJf7yy_aO9zKj6-31">
          <mxGeometry relative="1" as="geometry">
            <mxPoint x="-709.9999999999995" y="3810" as="sourcePoint" />
          </mxGeometry>
        </mxCell>
        <mxCell id="mJxSs9lJf7yy_aO9zKj6-21" value="" style="ellipse;whiteSpace=wrap;html=1;aspect=fixed;fillColor=#cce5ff;strokeColor=#36393d;strokeWidth=2;" vertex="1" parent="1">
          <mxGeometry x="-747.5" y="3780" width="40" height="40" as="geometry" />
        </mxCell>
        <mxCell id="mJxSs9lJf7yy_aO9zKj6-22" style="edgeStyle=none;rounded=0;orthogonalLoop=1;jettySize=auto;html=1;exitX=0;exitY=0.5;exitDx=0;exitDy=0;entryX=1;entryY=0.5;entryDx=0;entryDy=0;endArrow=none;endFill=0;fillColor=#cce5ff;strokeColor=#36393d;strokeWidth=2;" edge="1" parent="1" source="mJxSs9lJf7yy_aO9zKj6-24" target="mJxSs9lJf7yy_aO9zKj6-26">
          <mxGeometry relative="1" as="geometry" />
        </mxCell>
        <mxCell id="mJxSs9lJf7yy_aO9zKj6-23" style="edgeStyle=none;rounded=0;orthogonalLoop=1;jettySize=auto;html=1;endArrow=none;endFill=0;fillColor=#cce5ff;strokeColor=#36393d;strokeWidth=2;" edge="1" parent="1" target="mJxSs9lJf7yy_aO9zKj6-28">
          <mxGeometry relative="1" as="geometry">
            <mxPoint x="-799.9999999999995" y="3900" as="sourcePoint" />
          </mxGeometry>
        </mxCell>
        <mxCell id="mJxSs9lJf7yy_aO9zKj6-24" value="" style="ellipse;whiteSpace=wrap;html=1;aspect=fixed;fillColor=#cce5ff;strokeColor=#36393d;strokeWidth=2;" vertex="1" parent="1">
          <mxGeometry x="-812.5" y="3860" width="40" height="40" as="geometry" />
        </mxCell>
        <mxCell id="mJxSs9lJf7yy_aO9zKj6-25" style="edgeStyle=none;rounded=0;orthogonalLoop=1;jettySize=auto;html=1;exitX=1;exitY=1;exitDx=0;exitDy=0;entryX=0;entryY=0;entryDx=0;entryDy=0;endArrow=none;endFill=0;fillColor=#cce5ff;strokeColor=#36393d;strokeWidth=2;" edge="1" parent="1" source="mJxSs9lJf7yy_aO9zKj6-26" target="mJxSs9lJf7yy_aO9zKj6-28">
          <mxGeometry relative="1" as="geometry" />
        </mxCell>
        <mxCell id="mJxSs9lJf7yy_aO9zKj6-26" value="" style="ellipse;whiteSpace=wrap;html=1;aspect=fixed;fillColor=#cce5ff;strokeColor=#36393d;strokeWidth=2;" vertex="1" parent="1">
          <mxGeometry x="-940" y="3840" width="40" height="40" as="geometry" />
        </mxCell>
        <mxCell id="mJxSs9lJf7yy_aO9zKj6-27" style="edgeStyle=none;rounded=0;orthogonalLoop=1;jettySize=auto;html=1;exitX=0.985;exitY=0.66;exitDx=0;exitDy=0;entryX=0;entryY=0.5;entryDx=0;entryDy=0;endArrow=none;endFill=0;exitPerimeter=0;fillColor=#cce5ff;strokeColor=#36393d;strokeWidth=2;" edge="1" parent="1" source="mJxSs9lJf7yy_aO9zKj6-28" target="mJxSs9lJf7yy_aO9zKj6-29">
          <mxGeometry relative="1" as="geometry" />
        </mxCell>
        <mxCell id="mJxSs9lJf7yy_aO9zKj6-28" value="" style="ellipse;whiteSpace=wrap;html=1;aspect=fixed;fillColor=#cce5ff;strokeColor=#36393d;strokeWidth=2;" vertex="1" parent="1">
          <mxGeometry x="-865" y="3960" width="40" height="40" as="geometry" />
        </mxCell>
        <mxCell id="mJxSs9lJf7yy_aO9zKj6-29" value="" style="ellipse;whiteSpace=wrap;html=1;aspect=fixed;fillColor=#cce5ff;strokeColor=#36393d;strokeWidth=2;" vertex="1" parent="1">
          <mxGeometry x="-720" y="3990" width="40" height="40" as="geometry" />
        </mxCell>
        <mxCell id="mJxSs9lJf7yy_aO9zKj6-30" style="edgeStyle=none;rounded=0;orthogonalLoop=1;jettySize=auto;html=1;exitX=0.912;exitY=0.71;exitDx=0;exitDy=0;entryX=0;entryY=0;entryDx=0;entryDy=0;endArrow=none;endFill=0;exitPerimeter=0;fillColor=#ffcccc;strokeColor=#36393d;strokeWidth=2;" edge="1" parent="1" source="mJxSs9lJf7yy_aO9zKj6-31" target="mJxSs9lJf7yy_aO9zKj6-34">
          <mxGeometry relative="1" as="geometry" />
        </mxCell>
        <mxCell id="mJxSs9lJf7yy_aO9zKj6-31" value="" style="ellipse;whiteSpace=wrap;html=1;aspect=fixed;fillColor=#ffcccc;strokeColor=#36393d;strokeWidth=2;" vertex="1" parent="1">
          <mxGeometry x="-675" y="3820" width="40" height="40" as="geometry" />
        </mxCell>
        <mxCell id="mJxSs9lJf7yy_aO9zKj6-32" style="edgeStyle=none;rounded=0;orthogonalLoop=1;jettySize=auto;html=1;entryX=0.5;entryY=0;entryDx=0;entryDy=0;endArrow=none;endFill=0;fillColor=#ffcccc;strokeColor=#36393d;strokeWidth=2;" edge="1" parent="1" source="mJxSs9lJf7yy_aO9zKj6-34" target="mJxSs9lJf7yy_aO9zKj6-35">
          <mxGeometry relative="1" as="geometry" />
        </mxCell>
        <mxCell id="mJxSs9lJf7yy_aO9zKj6-33" style="edgeStyle=none;rounded=0;orthogonalLoop=1;jettySize=auto;html=1;entryX=0;entryY=0.5;entryDx=0;entryDy=0;endArrow=none;endFill=0;fillColor=#ffcccc;strokeColor=#36393d;strokeWidth=2;" edge="1" parent="1" source="mJxSs9lJf7yy_aO9zKj6-34" target="mJxSs9lJf7yy_aO9zKj6-36">
          <mxGeometry relative="1" as="geometry" />
        </mxCell>
        <mxCell id="mJxSs9lJf7yy_aO9zKj6-34" value="" style="ellipse;whiteSpace=wrap;html=1;aspect=fixed;fillColor=#ffcccc;strokeColor=#36393d;strokeWidth=2;" vertex="1" parent="1">
          <mxGeometry x="-610" y="3860" width="40" height="40" as="geometry" />
        </mxCell>
        <mxCell id="mJxSs9lJf7yy_aO9zKj6-35" value="" style="ellipse;whiteSpace=wrap;html=1;aspect=fixed;fillColor=#ffcccc;strokeColor=#36393d;strokeWidth=2;" vertex="1" parent="1">
          <mxGeometry x="-600" y="3960" width="40" height="40" as="geometry" />
        </mxCell>
        <mxCell id="mJxSs9lJf7yy_aO9zKj6-36" value="" style="ellipse;whiteSpace=wrap;html=1;aspect=fixed;fillColor=#ffcccc;strokeColor=#36393d;strokeWidth=2;" vertex="1" parent="1">
          <mxGeometry x="-512" y="3860" width="40" height="40" as="geometry" />
        </mxCell>
        <mxCell id="mJxSs9lJf7yy_aO9zKj6-67" value="" style="ellipse;whiteSpace=wrap;html=1;strokeWidth=2;" vertex="1" parent="1">
          <mxGeometry x="559.5" y="3480" width="390.5" height="303" as="geometry" />
        </mxCell>
        <mxCell id="mJxSs9lJf7yy_aO9zKj6-37" value="&lt;font color=&quot;#4d4d4d&quot;&gt;raw graph&lt;/font&gt;" style="text;html=1;align=center;verticalAlign=middle;whiteSpace=wrap;rounded=0;fontFamily=Comic Sans MS;fontSize=48;" vertex="1" parent="1">
          <mxGeometry x="-867" y="3770" width="310" height="30" as="geometry" />
        </mxCell>
        <mxCell id="mJxSs9lJf7yy_aO9zKj6-68" value="" style="ellipse;whiteSpace=wrap;html=1;rotation=-15;strokeWidth=2;" vertex="1" parent="1">
          <mxGeometry x="793.94" y="3804.01" width="451.5" height="326.39" as="geometry" />
        </mxCell>
        <mxCell id="mJxSs9lJf7yy_aO9zKj6-69" value="" style="ellipse;whiteSpace=wrap;html=1;strokeWidth=2;" vertex="1" parent="1">
          <mxGeometry x="260" y="3853" width="402" height="343" as="geometry" />
        </mxCell>
        <mxCell id="mJxSs9lJf7yy_aO9zKj6-70" style="edgeStyle=none;rounded=0;orthogonalLoop=1;jettySize=auto;html=1;exitX=1;exitY=0.5;exitDx=0;exitDy=0;entryX=0;entryY=0.5;entryDx=0;entryDy=0;endArrow=none;endFill=0;strokeWidth=2;" edge="1" parent="1" source="mJxSs9lJf7yy_aO9zKj6-72" target="mJxSs9lJf7yy_aO9zKj6-73">
          <mxGeometry relative="1" as="geometry" />
        </mxCell>
        <mxCell id="mJxSs9lJf7yy_aO9zKj6-71" style="edgeStyle=none;rounded=0;orthogonalLoop=1;jettySize=auto;html=1;exitX=1;exitY=1;exitDx=0;exitDy=0;entryX=0;entryY=0;entryDx=0;entryDy=0;endArrow=none;endFill=0;strokeWidth=2;" edge="1" parent="1" source="mJxSs9lJf7yy_aO9zKj6-72" target="mJxSs9lJf7yy_aO9zKj6-74">
          <mxGeometry relative="1" as="geometry" />
        </mxCell>
        <mxCell id="mJxSs9lJf7yy_aO9zKj6-72" value="" style="ellipse;whiteSpace=wrap;html=1;aspect=fixed;fillColor=#cdeb8b;strokeColor=#36393d;strokeWidth=2;" vertex="1" parent="1">
          <mxGeometry x="670.5" y="3543" width="40" height="40" as="geometry" />
        </mxCell>
        <mxCell id="mJxSs9lJf7yy_aO9zKj6-73" value="" style="ellipse;whiteSpace=wrap;html=1;aspect=fixed;fillColor=#cdeb8b;strokeColor=#36393d;strokeWidth=2;" vertex="1" parent="1">
          <mxGeometry x="788" y="3523" width="40" height="40" as="geometry" />
        </mxCell>
        <mxCell id="mJxSs9lJf7yy_aO9zKj6-74" value="" style="ellipse;whiteSpace=wrap;html=1;aspect=fixed;fillColor=#cdeb8b;strokeColor=#36393d;strokeWidth=2;" vertex="1" parent="1">
          <mxGeometry x="748" y="3631.5" width="40" height="40" as="geometry" />
        </mxCell>
        <mxCell id="mJxSs9lJf7yy_aO9zKj6-75" style="edgeStyle=none;rounded=0;orthogonalLoop=1;jettySize=auto;html=1;exitX=0;exitY=0.5;exitDx=0;exitDy=0;entryX=1;entryY=0.5;entryDx=0;entryDy=0;endArrow=none;endFill=0;strokeWidth=2;" edge="1" parent="1" source="mJxSs9lJf7yy_aO9zKj6-76" target="mJxSs9lJf7yy_aO9zKj6-77">
          <mxGeometry relative="1" as="geometry" />
        </mxCell>
        <mxCell id="mJxSs9lJf7yy_aO9zKj6-76" value="" style="ellipse;whiteSpace=wrap;html=1;aspect=fixed;fillColor=#cdeb8b;strokeColor=#36393d;strokeWidth=2;" vertex="1" parent="1">
          <mxGeometry x="944.5" y="3871.61" width="40" height="40" as="geometry" />
        </mxCell>
        <mxCell id="mJxSs9lJf7yy_aO9zKj6-77" value="" style="ellipse;whiteSpace=wrap;html=1;aspect=fixed;fillColor=#cdeb8b;strokeColor=#36393d;strokeWidth=2;" vertex="1" parent="1">
          <mxGeometry x="847" y="3906.61" width="40" height="40" as="geometry" />
        </mxCell>
        <mxCell id="mJxSs9lJf7yy_aO9zKj6-78" style="edgeStyle=none;rounded=0;orthogonalLoop=1;jettySize=auto;html=1;entryX=0;entryY=0.5;entryDx=0;entryDy=0;endArrow=none;endFill=0;fillColor=#cdeb8b;strokeColor=#36393d;strokeWidth=2;" edge="1" parent="1" target="mJxSs9lJf7yy_aO9zKj6-81">
          <mxGeometry relative="1" as="geometry">
            <mxPoint x="456.99999999999955" y="3913.6100000000006" as="sourcePoint" />
          </mxGeometry>
        </mxCell>
        <mxCell id="mJxSs9lJf7yy_aO9zKj6-79" style="edgeStyle=orthogonalEdgeStyle;curved=1;orthogonalLoop=1;jettySize=auto;html=1;exitX=1;exitY=0;exitDx=0;exitDy=0;entryX=1;entryY=1;entryDx=0;entryDy=0;dashed=1;startArrow=none;startFill=0;endArrow=classic;endFill=1;endSize=9;strokeColor=#97D077;strokeWidth=6;" edge="1" parent="1" source="mJxSs9lJf7yy_aO9zKj6-80" target="mJxSs9lJf7yy_aO9zKj6-74">
          <mxGeometry relative="1" as="geometry" />
        </mxCell>
        <mxCell id="mJxSs9lJf7yy_aO9zKj6-80" value="" style="ellipse;whiteSpace=wrap;html=1;aspect=fixed;fillColor=#cdeb8b;strokeColor=#36393d;strokeWidth=2;" vertex="1" parent="1">
          <mxGeometry x="414.5" y="3888.61" width="40" height="40" as="geometry" />
        </mxCell>
        <mxCell id="mJxSs9lJf7yy_aO9zKj6-81" value="" style="ellipse;whiteSpace=wrap;html=1;aspect=fixed;fillColor=#cdeb8b;strokeColor=#36393d;strokeWidth=2;" vertex="1" parent="1">
          <mxGeometry x="527" y="3898.61" width="40" height="40" as="geometry" />
        </mxCell>
        <mxCell id="mJxSs9lJf7yy_aO9zKj6-82" style="edgeStyle=none;rounded=0;orthogonalLoop=1;jettySize=auto;html=1;entryX=0.5;entryY=0;entryDx=0;entryDy=0;endArrow=none;endFill=0;fillColor=#eeeeee;strokeColor=#36393d;strokeWidth=2;" edge="1" parent="1" source="mJxSs9lJf7yy_aO9zKj6-84" target="mJxSs9lJf7yy_aO9zKj6-85">
          <mxGeometry relative="1" as="geometry" />
        </mxCell>
        <mxCell id="mJxSs9lJf7yy_aO9zKj6-83" style="edgeStyle=orthogonalEdgeStyle;curved=1;orthogonalLoop=1;jettySize=auto;html=1;exitX=0;exitY=0;exitDx=0;exitDy=0;entryX=1;entryY=1;entryDx=0;entryDy=0;dashed=1;startArrow=none;startFill=0;endArrow=classic;endFill=1;endSize=9;strokeColor=#97D077;strokeWidth=6;" edge="1" parent="1" source="mJxSs9lJf7yy_aO9zKj6-84" target="mJxSs9lJf7yy_aO9zKj6-74">
          <mxGeometry relative="1" as="geometry">
            <Array as="points">
              <mxPoint x="853.5" y="3877" />
              <mxPoint x="853.5" y="3666" />
            </Array>
          </mxGeometry>
        </mxCell>
        <mxCell id="mJxSs9lJf7yy_aO9zKj6-84" value="" style="ellipse;whiteSpace=wrap;html=1;aspect=fixed;fillColor=#cdeb8b;strokeColor=#36393d;strokeWidth=2;" vertex="1" parent="1">
          <mxGeometry x="944.5" y="3871.61" width="40" height="40" as="geometry" />
        </mxCell>
        <mxCell id="mJxSs9lJf7yy_aO9zKj6-85" value="" style="ellipse;whiteSpace=wrap;html=1;aspect=fixed;fillColor=#cce5ff;strokeColor=#36393d;strokeWidth=2;" vertex="1" parent="1">
          <mxGeometry x="959.5" y="3966.61" width="40" height="40" as="geometry" />
        </mxCell>
        <mxCell id="mJxSs9lJf7yy_aO9zKj6-86" style="edgeStyle=none;rounded=0;orthogonalLoop=1;jettySize=auto;html=1;exitX=0;exitY=0.5;exitDx=0;exitDy=0;entryX=1;entryY=0.5;entryDx=0;entryDy=0;endArrow=none;endFill=0;fillColor=#cce5ff;strokeColor=#36393d;strokeWidth=2;" edge="1" parent="1" source="mJxSs9lJf7yy_aO9zKj6-88" target="mJxSs9lJf7yy_aO9zKj6-89">
          <mxGeometry relative="1" as="geometry" />
        </mxCell>
        <mxCell id="mJxSs9lJf7yy_aO9zKj6-87" style="edgeStyle=orthogonalEdgeStyle;curved=1;orthogonalLoop=1;jettySize=auto;html=1;exitX=0.5;exitY=1;exitDx=0;exitDy=0;entryX=0;entryY=0;entryDx=0;entryDy=0;dashed=1;startArrow=none;startFill=0;endArrow=classic;endFill=1;endSize=9;strokeColor=#7EA6E0;strokeWidth=6;" edge="1" parent="1" source="mJxSs9lJf7yy_aO9zKj6-88" target="mJxSs9lJf7yy_aO9zKj6-94">
          <mxGeometry relative="1" as="geometry" />
        </mxCell>
        <mxCell id="mJxSs9lJf7yy_aO9zKj6-88" value="" style="ellipse;whiteSpace=wrap;html=1;aspect=fixed;fillColor=#cce5ff;strokeColor=#36393d;strokeWidth=2;" vertex="1" parent="1">
          <mxGeometry x="715.5" y="3673" width="40" height="40" as="geometry" />
        </mxCell>
        <mxCell id="mJxSs9lJf7yy_aO9zKj6-89" value="" style="ellipse;whiteSpace=wrap;html=1;aspect=fixed;fillColor=#cce5ff;strokeColor=#36393d;strokeWidth=2;" vertex="1" parent="1">
          <mxGeometry x="588" y="3653" width="40" height="40" as="geometry" />
        </mxCell>
        <mxCell id="mJxSs9lJf7yy_aO9zKj6-90" style="edgeStyle=none;rounded=0;orthogonalLoop=1;jettySize=auto;html=1;endArrow=none;endFill=0;fillColor=#cce5ff;strokeColor=#36393d;strokeWidth=2;" edge="1" parent="1" target="mJxSs9lJf7yy_aO9zKj6-92">
          <mxGeometry relative="1" as="geometry">
            <mxPoint x="972" y="4006.61" as="sourcePoint" />
          </mxGeometry>
        </mxCell>
        <mxCell id="mJxSs9lJf7yy_aO9zKj6-91" value="" style="ellipse;whiteSpace=wrap;html=1;aspect=fixed;fillColor=#cce5ff;strokeColor=#36393d;strokeWidth=2;" vertex="1" parent="1">
          <mxGeometry x="959.5" y="3966.61" width="40" height="40" as="geometry" />
        </mxCell>
        <mxCell id="mJxSs9lJf7yy_aO9zKj6-92" value="" style="ellipse;whiteSpace=wrap;html=1;aspect=fixed;fillColor=#cce5ff;strokeColor=#36393d;strokeWidth=2;" vertex="1" parent="1">
          <mxGeometry x="907" y="4066.61" width="40" height="40" as="geometry" />
        </mxCell>
        <mxCell id="mJxSs9lJf7yy_aO9zKj6-93" style="edgeStyle=none;rounded=0;orthogonalLoop=1;jettySize=auto;html=1;exitX=1;exitY=1;exitDx=0;exitDy=0;entryX=0;entryY=0;entryDx=0;entryDy=0;endArrow=none;endFill=0;fillColor=#cce5ff;strokeColor=#36393d;strokeWidth=2;" edge="1" parent="1" source="mJxSs9lJf7yy_aO9zKj6-94" target="mJxSs9lJf7yy_aO9zKj6-95">
          <mxGeometry relative="1" as="geometry" />
        </mxCell>
        <mxCell id="mJxSs9lJf7yy_aO9zKj6-94" value="" style="ellipse;whiteSpace=wrap;html=1;aspect=fixed;fillColor=#cce5ff;strokeColor=#36393d;strokeWidth=2;" vertex="1" parent="1">
          <mxGeometry x="299.5" y="3958.61" width="40" height="40" as="geometry" />
        </mxCell>
        <mxCell id="mJxSs9lJf7yy_aO9zKj6-95" value="" style="ellipse;whiteSpace=wrap;html=1;aspect=fixed;fillColor=#cce5ff;strokeColor=#36393d;strokeWidth=2;" vertex="1" parent="1">
          <mxGeometry x="374.5" y="4078.61" width="40" height="40" as="geometry" />
        </mxCell>
        <mxCell id="mJxSs9lJf7yy_aO9zKj6-96" style="edgeStyle=none;rounded=0;orthogonalLoop=1;jettySize=auto;html=1;exitX=0.985;exitY=0.66;exitDx=0;exitDy=0;entryX=0;entryY=0.5;entryDx=0;entryDy=0;endArrow=none;endFill=0;exitPerimeter=0;fillColor=#cce5ff;strokeColor=#36393d;strokeWidth=2;" edge="1" parent="1" source="mJxSs9lJf7yy_aO9zKj6-97" target="mJxSs9lJf7yy_aO9zKj6-98">
          <mxGeometry relative="1" as="geometry" />
        </mxCell>
        <mxCell id="mJxSs9lJf7yy_aO9zKj6-97" value="" style="ellipse;whiteSpace=wrap;html=1;aspect=fixed;fillColor=#cce5ff;strokeColor=#36393d;strokeWidth=2;" vertex="1" parent="1">
          <mxGeometry x="374.5" y="4078.61" width="40" height="40" as="geometry" />
        </mxCell>
        <mxCell id="mJxSs9lJf7yy_aO9zKj6-98" value="" style="ellipse;whiteSpace=wrap;html=1;aspect=fixed;fillColor=#cce5ff;strokeColor=#36393d;strokeWidth=2;" vertex="1" parent="1">
          <mxGeometry x="519.5" y="4108.610000000001" width="40" height="40" as="geometry" />
        </mxCell>
        <mxCell id="mJxSs9lJf7yy_aO9zKj6-99" style="edgeStyle=none;rounded=0;orthogonalLoop=1;jettySize=auto;html=1;endArrow=none;endFill=0;fillColor=#cce5ff;strokeColor=#36393d;strokeWidth=2;" edge="1" parent="1" target="mJxSs9lJf7yy_aO9zKj6-101">
          <mxGeometry relative="1" as="geometry">
            <mxPoint x="439.49999999999955" y="4018.6100000000006" as="sourcePoint" />
          </mxGeometry>
        </mxCell>
        <mxCell id="mJxSs9lJf7yy_aO9zKj6-100" value="" style="ellipse;whiteSpace=wrap;html=1;aspect=fixed;fillColor=#cce5ff;strokeColor=#36393d;strokeWidth=2;" vertex="1" parent="1">
          <mxGeometry x="427" y="3978.61" width="40" height="40" as="geometry" />
        </mxCell>
        <mxCell id="mJxSs9lJf7yy_aO9zKj6-101" value="" style="ellipse;whiteSpace=wrap;html=1;aspect=fixed;fillColor=#cce5ff;strokeColor=#36393d;strokeWidth=2;" vertex="1" parent="1">
          <mxGeometry x="374.5" y="4078.61" width="40" height="40" as="geometry" />
        </mxCell>
        <mxCell id="mJxSs9lJf7yy_aO9zKj6-102" style="edgeStyle=none;rounded=0;orthogonalLoop=1;jettySize=auto;html=1;exitX=0.912;exitY=0.71;exitDx=0;exitDy=0;entryX=0.171;entryY=0.285;entryDx=0;entryDy=0;endArrow=none;endFill=0;exitPerimeter=0;fillColor=#ffcccc;strokeColor=#36393d;entryPerimeter=0;strokeWidth=2;" edge="1" parent="1" source="mJxSs9lJf7yy_aO9zKj6-103" target="mJxSs9lJf7yy_aO9zKj6-105">
          <mxGeometry relative="1" as="geometry">
            <mxPoint x="1090.357864376269" y="3927.467864376269" as="targetPoint" />
          </mxGeometry>
        </mxCell>
        <mxCell id="mJxSs9lJf7yy_aO9zKj6-103" value="" style="ellipse;whiteSpace=wrap;html=1;aspect=fixed;fillColor=#ffcccc;strokeColor=#36393d;strokeWidth=2;" vertex="1" parent="1">
          <mxGeometry x="1019.5" y="3881.61" width="40" height="40" as="geometry" />
        </mxCell>
        <mxCell id="mJxSs9lJf7yy_aO9zKj6-104" style="edgeStyle=none;rounded=0;orthogonalLoop=1;jettySize=auto;html=1;entryX=0;entryY=0.5;entryDx=0;entryDy=0;endArrow=none;endFill=0;fillColor=#ffcccc;strokeColor=#36393d;strokeWidth=2;" edge="1" parent="1" target="mJxSs9lJf7yy_aO9zKj6-106">
          <mxGeometry relative="1" as="geometry">
            <mxPoint x="1123.5" y="3942" as="sourcePoint" />
          </mxGeometry>
        </mxCell>
        <mxCell id="mJxSs9lJf7yy_aO9zKj6-105" value="" style="ellipse;whiteSpace=wrap;html=1;aspect=fixed;fillColor=#ffcccc;strokeColor=#36393d;strokeWidth=2;" vertex="1" parent="1">
          <mxGeometry x="1083.5" y="3918.61" width="40" height="40" as="geometry" />
        </mxCell>
        <mxCell id="mJxSs9lJf7yy_aO9zKj6-106" value="" style="ellipse;whiteSpace=wrap;html=1;aspect=fixed;fillColor=#ffcccc;strokeColor=#36393d;strokeWidth=2;" vertex="1" parent="1">
          <mxGeometry x="1182.5" y="3921.61" width="40" height="40" as="geometry" />
        </mxCell>
        <mxCell id="mJxSs9lJf7yy_aO9zKj6-107" style="edgeStyle=none;rounded=0;orthogonalLoop=1;jettySize=auto;html=1;entryX=0.5;entryY=0;entryDx=0;entryDy=0;endArrow=none;endFill=0;fillColor=#ffcccc;strokeColor=#36393d;strokeWidth=2;" edge="1" parent="1" source="mJxSs9lJf7yy_aO9zKj6-109" target="mJxSs9lJf7yy_aO9zKj6-110">
          <mxGeometry relative="1" as="geometry" />
        </mxCell>
        <mxCell id="mJxSs9lJf7yy_aO9zKj6-108" style="edgeStyle=orthogonalEdgeStyle;curved=1;orthogonalLoop=1;jettySize=auto;html=1;exitX=1;exitY=0.5;exitDx=0;exitDy=0;dashed=1;startArrow=none;startFill=0;endArrow=classic;endFill=1;endSize=9;strokeColor=#FFCCCC;strokeWidth=6;" edge="1" parent="1" source="mJxSs9lJf7yy_aO9zKj6-109">
          <mxGeometry relative="1" as="geometry">
            <mxPoint x="1104.5" y="3961.61" as="targetPoint" />
            <Array as="points">
              <mxPoint x="710" y="3989" />
              <mxPoint x="710" y="4143" />
              <mxPoint x="1105" y="4143" />
            </Array>
          </mxGeometry>
        </mxCell>
        <mxCell id="mJxSs9lJf7yy_aO9zKj6-109" value="" style="ellipse;whiteSpace=wrap;html=1;aspect=fixed;fillColor=#ffcccc;strokeColor=#36393d;strokeWidth=2;" vertex="1" parent="1">
          <mxGeometry x="537" y="3968.61" width="40" height="40" as="geometry" />
        </mxCell>
        <mxCell id="mJxSs9lJf7yy_aO9zKj6-110" value="" style="ellipse;whiteSpace=wrap;html=1;aspect=fixed;fillColor=#ffcccc;strokeColor=#36393d;strokeWidth=2;" vertex="1" parent="1">
          <mxGeometry x="547" y="4068.61" width="40" height="40" as="geometry" />
        </mxCell>
        <mxCell id="mJxSs9lJf7yy_aO9zKj6-111" style="edgeStyle=none;rounded=0;orthogonalLoop=1;jettySize=auto;html=1;entryX=0.125;entryY=0.25;entryDx=0;entryDy=0;endArrow=none;endFill=0;entryPerimeter=0;fillColor=#eeeeee;strokeColor=#36393d;strokeWidth=2;" edge="1" parent="1" target="mJxSs9lJf7yy_aO9zKj6-114">
          <mxGeometry relative="1" as="geometry">
            <mxPoint x="837.5000000000005" y="3641.5" as="sourcePoint" />
          </mxGeometry>
        </mxCell>
        <mxCell id="mJxSs9lJf7yy_aO9zKj6-112" value="" style="ellipse;whiteSpace=wrap;html=1;aspect=fixed;fillColor=#cce5ff;strokeColor=#36393d;strokeWidth=2;" vertex="1" parent="1">
          <mxGeometry x="800" y="3611.5" width="40" height="40" as="geometry" />
        </mxCell>
        <mxCell id="mJxSs9lJf7yy_aO9zKj6-113" style="edgeStyle=orthogonalEdgeStyle;curved=1;orthogonalLoop=1;jettySize=auto;html=1;exitX=1;exitY=1;exitDx=0;exitDy=0;entryX=0;entryY=0;entryDx=0;entryDy=0;dashed=1;startArrow=none;startFill=0;endArrow=classic;endFill=1;endSize=9;strokeColor=#FFCCCC;strokeWidth=6;" edge="1" parent="1" source="mJxSs9lJf7yy_aO9zKj6-114" target="mJxSs9lJf7yy_aO9zKj6-103">
          <mxGeometry relative="1" as="geometry" />
        </mxCell>
        <mxCell id="mJxSs9lJf7yy_aO9zKj6-114" value="" style="ellipse;whiteSpace=wrap;html=1;aspect=fixed;fillColor=#ffcccc;strokeColor=#36393d;strokeWidth=2;" vertex="1" parent="1">
          <mxGeometry x="872.5" y="3651.5" width="40" height="40" as="geometry" />
        </mxCell>
        <mxCell id="mJxSs9lJf7yy_aO9zKj6-115" value="" style="ellipse;whiteSpace=wrap;html=1;strokeWidth=2;" vertex="1" parent="1">
          <mxGeometry x="1766" y="3446" width="340" height="410" as="geometry" />
        </mxCell>
        <mxCell id="mJxSs9lJf7yy_aO9zKj6-116" value="" style="ellipse;whiteSpace=wrap;html=1;rotation=-15;strokeWidth=2;" vertex="1" parent="1">
          <mxGeometry x="2058" y="3816" width="380" height="345.99" as="geometry" />
        </mxCell>
        <mxCell id="mJxSs9lJf7yy_aO9zKj6-117" value="" style="ellipse;whiteSpace=wrap;html=1;strokeWidth=2;" vertex="1" parent="1">
          <mxGeometry x="1475" y="3886" width="370" height="310" as="geometry" />
        </mxCell>
        <mxCell id="mJxSs9lJf7yy_aO9zKj6-118" style="edgeStyle=none;rounded=0;orthogonalLoop=1;jettySize=auto;html=1;exitX=1;exitY=0.5;exitDx=0;exitDy=0;entryX=0;entryY=0.5;entryDx=0;entryDy=0;endArrow=none;endFill=0;strokeWidth=2;" edge="1" parent="1" source="mJxSs9lJf7yy_aO9zKj6-120" target="mJxSs9lJf7yy_aO9zKj6-121">
          <mxGeometry relative="1" as="geometry" />
        </mxCell>
        <mxCell id="mJxSs9lJf7yy_aO9zKj6-119" style="edgeStyle=none;rounded=0;orthogonalLoop=1;jettySize=auto;html=1;exitX=1;exitY=1;exitDx=0;exitDy=0;entryX=0;entryY=0;entryDx=0;entryDy=0;endArrow=none;endFill=0;strokeWidth=2;" edge="1" parent="1" source="mJxSs9lJf7yy_aO9zKj6-120" target="mJxSs9lJf7yy_aO9zKj6-122">
          <mxGeometry relative="1" as="geometry" />
        </mxCell>
        <mxCell id="mJxSs9lJf7yy_aO9zKj6-120" value="" style="ellipse;whiteSpace=wrap;html=1;aspect=fixed;fillColor=#cdeb8b;strokeColor=#36393d;strokeWidth=2;" vertex="1" parent="1">
          <mxGeometry x="1851.06" y="3509" width="40" height="40" as="geometry" />
        </mxCell>
        <mxCell id="mJxSs9lJf7yy_aO9zKj6-121" value="" style="ellipse;whiteSpace=wrap;html=1;aspect=fixed;fillColor=#cdeb8b;strokeColor=#36393d;strokeWidth=2;" vertex="1" parent="1">
          <mxGeometry x="1968.56" y="3489" width="40" height="40" as="geometry" />
        </mxCell>
        <mxCell id="mJxSs9lJf7yy_aO9zKj6-122" value="" style="ellipse;whiteSpace=wrap;html=1;aspect=fixed;fillColor=#cdeb8b;strokeColor=#36393d;strokeWidth=2;" vertex="1" parent="1">
          <mxGeometry x="1928.56" y="3597.5" width="40" height="40" as="geometry" />
        </mxCell>
        <mxCell id="mJxSs9lJf7yy_aO9zKj6-123" style="edgeStyle=none;rounded=0;orthogonalLoop=1;jettySize=auto;html=1;exitX=0;exitY=0.5;exitDx=0;exitDy=0;entryX=1;entryY=0.5;entryDx=0;entryDy=0;endArrow=none;endFill=0;strokeWidth=2;" edge="1" parent="1" source="mJxSs9lJf7yy_aO9zKj6-124" target="mJxSs9lJf7yy_aO9zKj6-125">
          <mxGeometry relative="1" as="geometry" />
        </mxCell>
        <mxCell id="mJxSs9lJf7yy_aO9zKj6-124" value="" style="ellipse;whiteSpace=wrap;html=1;aspect=fixed;fillColor=#cdeb8b;strokeColor=#36393d;strokeWidth=2;" vertex="1" parent="1">
          <mxGeometry x="1928.56" y="3597.5" width="40" height="40" as="geometry" />
        </mxCell>
        <mxCell id="mJxSs9lJf7yy_aO9zKj6-125" value="" style="ellipse;whiteSpace=wrap;html=1;aspect=fixed;fillColor=#cdeb8b;strokeColor=#36393d;strokeWidth=2;" vertex="1" parent="1">
          <mxGeometry x="1827" y="3632.5" width="40" height="40" as="geometry" />
        </mxCell>
        <mxCell id="mJxSs9lJf7yy_aO9zKj6-126" style="edgeStyle=none;rounded=0;orthogonalLoop=1;jettySize=auto;html=1;entryX=0;entryY=0.5;entryDx=0;entryDy=0;endArrow=none;endFill=0;fillColor=#cdeb8b;strokeColor=#36393d;exitX=1;exitY=0.5;exitDx=0;exitDy=0;strokeWidth=2;" edge="1" parent="1" source="mJxSs9lJf7yy_aO9zKj6-127" target="mJxSs9lJf7yy_aO9zKj6-128">
          <mxGeometry relative="1" as="geometry">
            <mxPoint x="1971.06" y="3622.5" as="sourcePoint" />
          </mxGeometry>
        </mxCell>
        <mxCell id="mJxSs9lJf7yy_aO9zKj6-127" value="" style="ellipse;whiteSpace=wrap;html=1;aspect=fixed;fillColor=#cdeb8b;strokeColor=#36393d;strokeWidth=2;" vertex="1" parent="1">
          <mxGeometry x="1928.56" y="3597.5" width="40" height="40" as="geometry" />
        </mxCell>
        <mxCell id="mJxSs9lJf7yy_aO9zKj6-128" value="" style="ellipse;whiteSpace=wrap;html=1;aspect=fixed;fillColor=#cdeb8b;strokeColor=#36393d;strokeWidth=2;" vertex="1" parent="1">
          <mxGeometry x="2027.56" y="3613" width="40" height="40" as="geometry" />
        </mxCell>
        <mxCell id="mJxSs9lJf7yy_aO9zKj6-129" style="edgeStyle=none;rounded=0;orthogonalLoop=1;jettySize=auto;html=1;entryX=0.5;entryY=0;entryDx=0;entryDy=0;endArrow=none;endFill=0;fillColor=#eeeeee;strokeColor=#36393d;strokeWidth=2;" edge="1" parent="1" source="mJxSs9lJf7yy_aO9zKj6-130" target="mJxSs9lJf7yy_aO9zKj6-131">
          <mxGeometry relative="1" as="geometry" />
        </mxCell>
        <mxCell id="mJxSs9lJf7yy_aO9zKj6-130" value="" style="ellipse;whiteSpace=wrap;html=1;aspect=fixed;fillColor=#cdeb8b;strokeColor=#36393d;strokeWidth=2;" vertex="1" parent="1">
          <mxGeometry x="1928.56" y="3597.5" width="40" height="40" as="geometry" />
        </mxCell>
        <mxCell id="mJxSs9lJf7yy_aO9zKj6-131" value="" style="ellipse;whiteSpace=wrap;html=1;aspect=fixed;fillColor=#cce5ff;strokeColor=#36393d;strokeWidth=2;" vertex="1" parent="1">
          <mxGeometry x="1939.5" y="3692.5" width="40" height="40" as="geometry" />
        </mxCell>
        <mxCell id="mJxSs9lJf7yy_aO9zKj6-132" style="edgeStyle=none;rounded=0;orthogonalLoop=1;jettySize=auto;html=1;exitX=0;exitY=0.5;exitDx=0;exitDy=0;entryX=1;entryY=0.5;entryDx=0;entryDy=0;endArrow=none;endFill=0;fillColor=#cce5ff;strokeColor=#36393d;strokeWidth=2;" edge="1" parent="1" source="mJxSs9lJf7yy_aO9zKj6-133" target="mJxSs9lJf7yy_aO9zKj6-134">
          <mxGeometry relative="1" as="geometry" />
        </mxCell>
        <mxCell id="mJxSs9lJf7yy_aO9zKj6-133" value="" style="ellipse;whiteSpace=wrap;html=1;aspect=fixed;fillColor=#cce5ff;strokeColor=#36393d;strokeWidth=2;" vertex="1" parent="1">
          <mxGeometry x="1642" y="3971.61" width="40" height="40" as="geometry" />
        </mxCell>
        <mxCell id="mJxSs9lJf7yy_aO9zKj6-134" value="" style="ellipse;whiteSpace=wrap;html=1;aspect=fixed;fillColor=#cce5ff;strokeColor=#36393d;strokeWidth=2;" vertex="1" parent="1">
          <mxGeometry x="1514.5" y="3951.61" width="40" height="40" as="geometry" />
        </mxCell>
        <mxCell id="mJxSs9lJf7yy_aO9zKj6-135" style="edgeStyle=none;rounded=0;orthogonalLoop=1;jettySize=auto;html=1;endArrow=none;endFill=0;fillColor=#cce5ff;strokeColor=#36393d;strokeWidth=2;" edge="1" parent="1" target="mJxSs9lJf7yy_aO9zKj6-138">
          <mxGeometry relative="1" as="geometry">
            <mxPoint x="1952" y="3732.5" as="sourcePoint" />
          </mxGeometry>
        </mxCell>
        <mxCell id="mJxSs9lJf7yy_aO9zKj6-136" value="" style="ellipse;whiteSpace=wrap;html=1;aspect=fixed;fillColor=#cce5ff;strokeColor=#36393d;strokeWidth=2;" vertex="1" parent="1">
          <mxGeometry x="1939.5" y="3692.5" width="40" height="40" as="geometry" />
        </mxCell>
        <mxCell id="mJxSs9lJf7yy_aO9zKj6-137" style="edgeStyle=orthogonalEdgeStyle;curved=1;orthogonalLoop=1;jettySize=auto;html=1;exitX=0;exitY=1;exitDx=0;exitDy=0;entryX=1;entryY=0;entryDx=0;entryDy=0;fontFamily=Comic Sans MS;fontSize=48;startArrow=none;startFill=0;endArrow=classic;endFill=1;endSize=9;strokeColor=#7EA6E0;strokeWidth=6;dashed=1;" edge="1" parent="1" source="mJxSs9lJf7yy_aO9zKj6-138" target="mJxSs9lJf7yy_aO9zKj6-146">
          <mxGeometry relative="1" as="geometry" />
        </mxCell>
        <mxCell id="mJxSs9lJf7yy_aO9zKj6-138" value="" style="ellipse;whiteSpace=wrap;html=1;aspect=fixed;fillColor=#cce5ff;strokeColor=#36393d;strokeWidth=2;" vertex="1" parent="1">
          <mxGeometry x="1887" y="3792.5" width="40" height="40" as="geometry" />
        </mxCell>
        <mxCell id="mJxSs9lJf7yy_aO9zKj6-139" style="edgeStyle=none;rounded=0;orthogonalLoop=1;jettySize=auto;html=1;exitX=1;exitY=1;exitDx=0;exitDy=0;entryX=0;entryY=0;entryDx=0;entryDy=0;endArrow=none;endFill=0;fillColor=#cce5ff;strokeColor=#36393d;strokeWidth=2;" edge="1" parent="1" source="mJxSs9lJf7yy_aO9zKj6-140" target="mJxSs9lJf7yy_aO9zKj6-141">
          <mxGeometry relative="1" as="geometry" />
        </mxCell>
        <mxCell id="mJxSs9lJf7yy_aO9zKj6-140" value="" style="ellipse;whiteSpace=wrap;html=1;aspect=fixed;fillColor=#cce5ff;strokeColor=#36393d;strokeWidth=2;" vertex="1" parent="1">
          <mxGeometry x="1514.5" y="3951.61" width="40" height="40" as="geometry" />
        </mxCell>
        <mxCell id="mJxSs9lJf7yy_aO9zKj6-141" value="" style="ellipse;whiteSpace=wrap;html=1;aspect=fixed;fillColor=#cce5ff;strokeColor=#36393d;strokeWidth=2;" vertex="1" parent="1">
          <mxGeometry x="1589.5" y="4071.61" width="40" height="40" as="geometry" />
        </mxCell>
        <mxCell id="mJxSs9lJf7yy_aO9zKj6-142" style="edgeStyle=none;rounded=0;orthogonalLoop=1;jettySize=auto;html=1;exitX=0.985;exitY=0.66;exitDx=0;exitDy=0;entryX=0;entryY=0.5;entryDx=0;entryDy=0;endArrow=none;endFill=0;exitPerimeter=0;fillColor=#cce5ff;strokeColor=#36393d;strokeWidth=2;" edge="1" parent="1" source="mJxSs9lJf7yy_aO9zKj6-143" target="mJxSs9lJf7yy_aO9zKj6-144">
          <mxGeometry relative="1" as="geometry" />
        </mxCell>
        <mxCell id="mJxSs9lJf7yy_aO9zKj6-143" value="" style="ellipse;whiteSpace=wrap;html=1;aspect=fixed;fillColor=#cce5ff;strokeColor=#36393d;strokeWidth=2;" vertex="1" parent="1">
          <mxGeometry x="1589.5" y="4071.61" width="40" height="40" as="geometry" />
        </mxCell>
        <mxCell id="mJxSs9lJf7yy_aO9zKj6-144" value="" style="ellipse;whiteSpace=wrap;html=1;aspect=fixed;fillColor=#cce5ff;strokeColor=#36393d;strokeWidth=2;" vertex="1" parent="1">
          <mxGeometry x="1734.5" y="4101.610000000001" width="40" height="40" as="geometry" />
        </mxCell>
        <mxCell id="mJxSs9lJf7yy_aO9zKj6-145" style="edgeStyle=none;rounded=0;orthogonalLoop=1;jettySize=auto;html=1;endArrow=none;endFill=0;fillColor=#cce5ff;strokeColor=#36393d;strokeWidth=2;" edge="1" parent="1" target="mJxSs9lJf7yy_aO9zKj6-147">
          <mxGeometry relative="1" as="geometry">
            <mxPoint x="1654.5" y="4011.61" as="sourcePoint" />
          </mxGeometry>
        </mxCell>
        <mxCell id="mJxSs9lJf7yy_aO9zKj6-146" value="" style="ellipse;whiteSpace=wrap;html=1;aspect=fixed;fillColor=#cce5ff;strokeColor=#36393d;strokeWidth=2;" vertex="1" parent="1">
          <mxGeometry x="1642" y="3971.61" width="40" height="40" as="geometry" />
        </mxCell>
        <mxCell id="mJxSs9lJf7yy_aO9zKj6-147" value="" style="ellipse;whiteSpace=wrap;html=1;aspect=fixed;fillColor=#cce5ff;strokeColor=#36393d;strokeWidth=2;" vertex="1" parent="1">
          <mxGeometry x="1589.5" y="4071.61" width="40" height="40" as="geometry" />
        </mxCell>
        <mxCell id="mJxSs9lJf7yy_aO9zKj6-148" style="edgeStyle=none;rounded=0;orthogonalLoop=1;jettySize=auto;html=1;exitX=0.912;exitY=0.71;exitDx=0;exitDy=0;entryX=0.171;entryY=0.285;entryDx=0;entryDy=0;endArrow=none;endFill=0;exitPerimeter=0;fillColor=#ffcccc;strokeColor=#36393d;entryPerimeter=0;strokeWidth=2;" edge="1" parent="1" source="mJxSs9lJf7yy_aO9zKj6-149" target="mJxSs9lJf7yy_aO9zKj6-151">
          <mxGeometry relative="1" as="geometry">
            <mxPoint x="2276.917864376269" y="3973.467864376269" as="targetPoint" />
          </mxGeometry>
        </mxCell>
        <mxCell id="mJxSs9lJf7yy_aO9zKj6-149" value="" style="ellipse;whiteSpace=wrap;html=1;aspect=fixed;fillColor=#ffcccc;strokeColor=#36393d;strokeWidth=2;" vertex="1" parent="1">
          <mxGeometry x="2206.06" y="3927.61" width="40" height="40" as="geometry" />
        </mxCell>
        <mxCell id="mJxSs9lJf7yy_aO9zKj6-150" style="edgeStyle=none;rounded=0;orthogonalLoop=1;jettySize=auto;html=1;entryX=0;entryY=0.5;entryDx=0;entryDy=0;endArrow=none;endFill=0;fillColor=#ffcccc;strokeColor=#36393d;strokeWidth=2;" edge="1" parent="1" target="mJxSs9lJf7yy_aO9zKj6-152">
          <mxGeometry relative="1" as="geometry">
            <mxPoint x="2310.0599999999995" y="3988" as="sourcePoint" />
          </mxGeometry>
        </mxCell>
        <mxCell id="mJxSs9lJf7yy_aO9zKj6-151" value="" style="ellipse;whiteSpace=wrap;html=1;aspect=fixed;fillColor=#ffcccc;strokeColor=#36393d;strokeWidth=2;" vertex="1" parent="1">
          <mxGeometry x="2270.06" y="3964.61" width="40" height="40" as="geometry" />
        </mxCell>
        <mxCell id="mJxSs9lJf7yy_aO9zKj6-152" value="" style="ellipse;whiteSpace=wrap;html=1;aspect=fixed;fillColor=#ffcccc;strokeColor=#36393d;strokeWidth=2;" vertex="1" parent="1">
          <mxGeometry x="2369.06" y="3967.61" width="40" height="40" as="geometry" />
        </mxCell>
        <mxCell id="mJxSs9lJf7yy_aO9zKj6-153" style="edgeStyle=none;rounded=0;orthogonalLoop=1;jettySize=auto;html=1;entryX=0.5;entryY=0;entryDx=0;entryDy=0;endArrow=none;endFill=0;fillColor=#ffcccc;strokeColor=#36393d;strokeWidth=2;" edge="1" parent="1" source="mJxSs9lJf7yy_aO9zKj6-154" target="mJxSs9lJf7yy_aO9zKj6-155">
          <mxGeometry relative="1" as="geometry" />
        </mxCell>
        <mxCell id="mJxSs9lJf7yy_aO9zKj6-154" value="" style="ellipse;whiteSpace=wrap;html=1;aspect=fixed;fillColor=#ffcccc;strokeColor=#36393d;strokeWidth=2;" vertex="1" parent="1">
          <mxGeometry x="2270.06" y="3964.61" width="40" height="40" as="geometry" />
        </mxCell>
        <mxCell id="mJxSs9lJf7yy_aO9zKj6-155" value="" style="ellipse;whiteSpace=wrap;html=1;aspect=fixed;fillColor=#ffcccc;strokeColor=#36393d;strokeWidth=2;" vertex="1" parent="1">
          <mxGeometry x="2280.06" y="4064.61" width="40" height="40" as="geometry" />
        </mxCell>
        <mxCell id="mJxSs9lJf7yy_aO9zKj6-156" style="edgeStyle=none;rounded=0;orthogonalLoop=1;jettySize=auto;html=1;entryX=0.125;entryY=0.25;entryDx=0;entryDy=0;endArrow=none;endFill=0;entryPerimeter=0;fillColor=#eeeeee;strokeColor=#36393d;strokeWidth=2;" edge="1" parent="1" target="mJxSs9lJf7yy_aO9zKj6-158">
          <mxGeometry relative="1" as="geometry">
            <mxPoint x="2162" y="3915.9999999999995" as="sourcePoint" />
          </mxGeometry>
        </mxCell>
        <mxCell id="mJxSs9lJf7yy_aO9zKj6-157" value="" style="ellipse;whiteSpace=wrap;html=1;aspect=fixed;fillColor=#cce5ff;strokeColor=#36393d;strokeWidth=2;" vertex="1" parent="1">
          <mxGeometry x="2142" y="3887.61" width="40" height="40" as="geometry" />
        </mxCell>
        <mxCell id="mJxSs9lJf7yy_aO9zKj6-158" value="" style="ellipse;whiteSpace=wrap;html=1;aspect=fixed;fillColor=#ffcccc;strokeColor=#36393d;strokeWidth=2;" vertex="1" parent="1">
          <mxGeometry x="2205.5" y="3927.61" width="40" height="40" as="geometry" />
        </mxCell>
        <mxCell id="mJxSs9lJf7yy_aO9zKj6-159" value="" style="endArrow=none;html=1;fontFamily=Comic Sans MS;fontSize=48;endSize=9;strokeColor=#000000;strokeWidth=2;curved=1;" edge="1" parent="1">
          <mxGeometry width="50" height="50" relative="1" as="geometry">
            <mxPoint x="1903.25" y="3742.5" as="sourcePoint" />
            <mxPoint x="1968.7499999999995" y="3792.5" as="targetPoint" />
          </mxGeometry>
        </mxCell>
        <mxCell id="mJxSs9lJf7yy_aO9zKj6-160" value="" style="ellipse;whiteSpace=wrap;html=1;strokeWidth=2;" vertex="1" parent="1">
          <mxGeometry x="3250" y="3820.9999999999995" width="410" height="290" as="geometry" />
        </mxCell>
        <mxCell id="mJxSs9lJf7yy_aO9zKj6-161" value="" style="ellipse;whiteSpace=wrap;html=1;strokeWidth=2;" vertex="1" parent="1">
          <mxGeometry x="2790" y="3870.9999999999995" width="350" height="300" as="geometry" />
        </mxCell>
        <mxCell id="mJxSs9lJf7yy_aO9zKj6-162" value="" style="ellipse;whiteSpace=wrap;html=1;strokeWidth=2;" vertex="1" parent="1">
          <mxGeometry x="2890" y="3499.9999999999995" width="360" height="291" as="geometry" />
        </mxCell>
        <mxCell id="mJxSs9lJf7yy_aO9zKj6-163" style="edgeStyle=none;rounded=0;orthogonalLoop=1;jettySize=auto;html=1;entryX=1;entryY=0.5;entryDx=0;entryDy=0;endArrow=none;endFill=0;strokeWidth=2;" edge="1" parent="1" target="mJxSs9lJf7yy_aO9zKj6-171">
          <mxGeometry relative="1" as="geometry">
            <mxPoint x="3053" y="3660.9999999999995" as="sourcePoint" />
          </mxGeometry>
        </mxCell>
        <mxCell id="mJxSs9lJf7yy_aO9zKj6-164" style="edgeStyle=none;rounded=0;orthogonalLoop=1;jettySize=auto;html=1;entryX=0;entryY=0.5;entryDx=0;entryDy=0;endArrow=none;endFill=0;strokeWidth=2;" edge="1" parent="1" target="mJxSs9lJf7yy_aO9zKj6-172">
          <mxGeometry relative="1" as="geometry">
            <mxPoint x="3090" y="3660.9999999999995" as="sourcePoint" />
          </mxGeometry>
        </mxCell>
        <mxCell id="mJxSs9lJf7yy_aO9zKj6-165" style="edgeStyle=none;rounded=0;orthogonalLoop=1;jettySize=auto;html=1;entryX=0.5;entryY=0;entryDx=0;entryDy=0;endArrow=none;endFill=0;strokeWidth=2;" edge="1" parent="1" source="mJxSs9lJf7yy_aO9zKj6-166" target="mJxSs9lJf7yy_aO9zKj6-175">
          <mxGeometry relative="1" as="geometry" />
        </mxCell>
        <mxCell id="mJxSs9lJf7yy_aO9zKj6-166" value="" style="ellipse;whiteSpace=wrap;html=1;aspect=fixed;fillColor=#cdeb8b;strokeColor=#36393d;strokeWidth=2;" vertex="1" parent="1">
          <mxGeometry x="3047.5" y="3635.9999999999995" width="40" height="40" as="geometry" />
        </mxCell>
        <mxCell id="mJxSs9lJf7yy_aO9zKj6-167" style="edgeStyle=none;rounded=0;orthogonalLoop=1;jettySize=auto;html=1;exitX=1;exitY=1;exitDx=0;exitDy=0;entryX=0;entryY=0;entryDx=0;entryDy=0;endArrow=none;endFill=0;strokeWidth=2;" edge="1" parent="1" source="mJxSs9lJf7yy_aO9zKj6-169" target="mJxSs9lJf7yy_aO9zKj6-166">
          <mxGeometry relative="1" as="geometry" />
        </mxCell>
        <mxCell id="mJxSs9lJf7yy_aO9zKj6-168" style="edgeStyle=none;rounded=0;orthogonalLoop=1;jettySize=auto;html=1;exitX=1;exitY=0.5;exitDx=0;exitDy=0;entryX=0;entryY=0.5;entryDx=0;entryDy=0;endArrow=none;endFill=0;strokeWidth=2;" edge="1" parent="1" source="mJxSs9lJf7yy_aO9zKj6-169" target="mJxSs9lJf7yy_aO9zKj6-170">
          <mxGeometry relative="1" as="geometry" />
        </mxCell>
        <mxCell id="mJxSs9lJf7yy_aO9zKj6-169" value="" style="ellipse;whiteSpace=wrap;html=1;aspect=fixed;fillColor=#cdeb8b;strokeColor=#36393d;strokeWidth=2;" vertex="1" parent="1">
          <mxGeometry x="2985" y="3550.9999999999995" width="40" height="40" as="geometry" />
        </mxCell>
        <mxCell id="mJxSs9lJf7yy_aO9zKj6-170" value="" style="ellipse;whiteSpace=wrap;html=1;aspect=fixed;fillColor=#cdeb8b;strokeColor=#36393d;strokeWidth=2;" vertex="1" parent="1">
          <mxGeometry x="3102.5" y="3530.9999999999995" width="40" height="40" as="geometry" />
        </mxCell>
        <mxCell id="mJxSs9lJf7yy_aO9zKj6-171" value="" style="ellipse;whiteSpace=wrap;html=1;aspect=fixed;fillColor=#cdeb8b;strokeColor=#36393d;strokeWidth=2;" vertex="1" parent="1">
          <mxGeometry x="2950" y="3670.9999999999995" width="40" height="40" as="geometry" />
        </mxCell>
        <mxCell id="mJxSs9lJf7yy_aO9zKj6-172" value="" style="ellipse;whiteSpace=wrap;html=1;aspect=fixed;fillColor=#cdeb8b;strokeColor=#36393d;strokeWidth=2;" vertex="1" parent="1">
          <mxGeometry x="3160" y="3645.9999999999995" width="40" height="40" as="geometry" />
        </mxCell>
        <mxCell id="mJxSs9lJf7yy_aO9zKj6-173" style="edgeStyle=none;rounded=0;orthogonalLoop=1;jettySize=auto;html=1;exitX=0.291;exitY=0.988;exitDx=0;exitDy=0;entryX=1;entryY=0;entryDx=0;entryDy=0;endArrow=none;endFill=0;exitPerimeter=0;strokeWidth=2;" edge="1" parent="1" source="mJxSs9lJf7yy_aO9zKj6-191" target="mJxSs9lJf7yy_aO9zKj6-177">
          <mxGeometry relative="1" as="geometry" />
        </mxCell>
        <mxCell id="mJxSs9lJf7yy_aO9zKj6-174" style="edgeStyle=none;rounded=0;orthogonalLoop=1;jettySize=auto;html=1;entryX=0.125;entryY=0.25;entryDx=0;entryDy=0;endArrow=none;endFill=0;entryPerimeter=0;exitX=1;exitY=1;exitDx=0;exitDy=0;strokeWidth=2;" edge="1" parent="1" source="mJxSs9lJf7yy_aO9zKj6-192" target="mJxSs9lJf7yy_aO9zKj6-185">
          <mxGeometry relative="1" as="geometry">
            <mxPoint x="3395" y="3804.9999999999995" as="sourcePoint" />
          </mxGeometry>
        </mxCell>
        <mxCell id="mJxSs9lJf7yy_aO9zKj6-175" value="" style="ellipse;whiteSpace=wrap;html=1;aspect=fixed;fillColor=#cdeb8b;strokeColor=#36393d;strokeWidth=2;" vertex="1" parent="1">
          <mxGeometry x="3062.5" y="3730.9999999999995" width="40" height="40" as="geometry" />
        </mxCell>
        <mxCell id="mJxSs9lJf7yy_aO9zKj6-176" style="edgeStyle=none;rounded=0;orthogonalLoop=1;jettySize=auto;html=1;entryX=1;entryY=0;entryDx=0;entryDy=0;endArrow=none;endFill=0;exitX=0.5;exitY=1;exitDx=0;exitDy=0;strokeWidth=2;" edge="1" parent="1" source="mJxSs9lJf7yy_aO9zKj6-177" target="mJxSs9lJf7yy_aO9zKj6-182">
          <mxGeometry relative="1" as="geometry">
            <mxPoint x="3023.5" y="3927.9999999999995" as="sourcePoint" />
          </mxGeometry>
        </mxCell>
        <mxCell id="mJxSs9lJf7yy_aO9zKj6-177" value="" style="ellipse;whiteSpace=wrap;html=1;aspect=fixed;fillColor=#cce5ff;strokeColor=#36393d;strokeWidth=2;" vertex="1" parent="1">
          <mxGeometry x="2943.5" y="3967.9999999999995" width="40" height="40" as="geometry" />
        </mxCell>
        <mxCell id="mJxSs9lJf7yy_aO9zKj6-178" style="edgeStyle=none;rounded=0;orthogonalLoop=1;jettySize=auto;html=1;exitX=1;exitY=1;exitDx=0;exitDy=0;entryX=0;entryY=0;entryDx=0;entryDy=0;endArrow=none;endFill=0;strokeWidth=2;" edge="1" parent="1" source="mJxSs9lJf7yy_aO9zKj6-180" target="mJxSs9lJf7yy_aO9zKj6-182">
          <mxGeometry relative="1" as="geometry" />
        </mxCell>
        <mxCell id="mJxSs9lJf7yy_aO9zKj6-179" style="edgeStyle=none;rounded=0;orthogonalLoop=1;jettySize=auto;html=1;exitX=1;exitY=0.5;exitDx=0;exitDy=0;entryX=0;entryY=0.5;entryDx=0;entryDy=0;endArrow=none;endFill=0;strokeWidth=2;" edge="1" parent="1" source="mJxSs9lJf7yy_aO9zKj6-180" target="mJxSs9lJf7yy_aO9zKj6-177">
          <mxGeometry relative="1" as="geometry" />
        </mxCell>
        <mxCell id="mJxSs9lJf7yy_aO9zKj6-180" value="" style="ellipse;whiteSpace=wrap;html=1;aspect=fixed;fillColor=#cce5ff;strokeColor=#36393d;strokeWidth=2;" vertex="1" parent="1">
          <mxGeometry x="2816" y="3947.9999999999995" width="40" height="40" as="geometry" />
        </mxCell>
        <mxCell id="mJxSs9lJf7yy_aO9zKj6-181" style="edgeStyle=none;rounded=0;orthogonalLoop=1;jettySize=auto;html=1;exitX=0.985;exitY=0.66;exitDx=0;exitDy=0;entryX=0;entryY=0.5;entryDx=0;entryDy=0;endArrow=none;endFill=0;exitPerimeter=0;strokeWidth=2;" edge="1" parent="1" source="mJxSs9lJf7yy_aO9zKj6-182" target="mJxSs9lJf7yy_aO9zKj6-183">
          <mxGeometry relative="1" as="geometry" />
        </mxCell>
        <mxCell id="mJxSs9lJf7yy_aO9zKj6-182" value="" style="ellipse;whiteSpace=wrap;html=1;aspect=fixed;fillColor=#cce5ff;strokeColor=#36393d;strokeWidth=2;" vertex="1" parent="1">
          <mxGeometry x="2891" y="4067.9999999999995" width="40" height="40" as="geometry" />
        </mxCell>
        <mxCell id="mJxSs9lJf7yy_aO9zKj6-183" value="" style="ellipse;whiteSpace=wrap;html=1;aspect=fixed;fillColor=#cce5ff;strokeColor=#36393d;strokeWidth=2;" vertex="1" parent="1">
          <mxGeometry x="3036" y="4098" width="40" height="40" as="geometry" />
        </mxCell>
        <mxCell id="mJxSs9lJf7yy_aO9zKj6-184" style="edgeStyle=none;rounded=0;orthogonalLoop=1;jettySize=auto;html=1;exitX=0.912;exitY=0.71;exitDx=0;exitDy=0;entryX=0;entryY=0;entryDx=0;entryDy=0;endArrow=none;endFill=0;exitPerimeter=0;strokeWidth=2;" edge="1" parent="1" source="mJxSs9lJf7yy_aO9zKj6-185" target="mJxSs9lJf7yy_aO9zKj6-188">
          <mxGeometry relative="1" as="geometry" />
        </mxCell>
        <mxCell id="mJxSs9lJf7yy_aO9zKj6-185" value="" style="ellipse;whiteSpace=wrap;html=1;aspect=fixed;fillColor=#ffcccc;strokeColor=#36393d;strokeWidth=2;" vertex="1" parent="1">
          <mxGeometry x="3387" y="3904.9999999999995" width="40" height="40" as="geometry" />
        </mxCell>
        <mxCell id="mJxSs9lJf7yy_aO9zKj6-186" style="edgeStyle=none;rounded=0;orthogonalLoop=1;jettySize=auto;html=1;entryX=0.5;entryY=0;entryDx=0;entryDy=0;endArrow=none;endFill=0;strokeWidth=2;" edge="1" parent="1" source="mJxSs9lJf7yy_aO9zKj6-188" target="mJxSs9lJf7yy_aO9zKj6-189">
          <mxGeometry relative="1" as="geometry" />
        </mxCell>
        <mxCell id="mJxSs9lJf7yy_aO9zKj6-187" style="edgeStyle=none;rounded=0;orthogonalLoop=1;jettySize=auto;html=1;entryX=0;entryY=0.5;entryDx=0;entryDy=0;endArrow=none;endFill=0;strokeWidth=2;" edge="1" parent="1" source="mJxSs9lJf7yy_aO9zKj6-188" target="mJxSs9lJf7yy_aO9zKj6-190">
          <mxGeometry relative="1" as="geometry" />
        </mxCell>
        <mxCell id="mJxSs9lJf7yy_aO9zKj6-188" value="" style="ellipse;whiteSpace=wrap;html=1;aspect=fixed;fillColor=#ffcccc;strokeColor=#36393d;strokeWidth=2;" vertex="1" parent="1">
          <mxGeometry x="3452" y="3944.9999999999995" width="40" height="40" as="geometry" />
        </mxCell>
        <mxCell id="mJxSs9lJf7yy_aO9zKj6-189" value="" style="ellipse;whiteSpace=wrap;html=1;aspect=fixed;fillColor=#ffcccc;strokeColor=#36393d;strokeWidth=2;" vertex="1" parent="1">
          <mxGeometry x="3462" y="4044.9999999999995" width="40" height="40" as="geometry" />
        </mxCell>
        <mxCell id="mJxSs9lJf7yy_aO9zKj6-190" value="" style="ellipse;whiteSpace=wrap;html=1;aspect=fixed;fillColor=#ffcccc;strokeColor=#36393d;strokeWidth=2;" vertex="1" parent="1">
          <mxGeometry x="3550" y="3944.9999999999995" width="40" height="40" as="geometry" />
        </mxCell>
        <mxCell id="mJxSs9lJf7yy_aO9zKj6-191" value="" style="ellipse;whiteSpace=wrap;html=1;aspect=fixed;fillColor=#cce5ff;strokeColor=#36393d;strokeWidth=2;" vertex="1" parent="1">
          <mxGeometry x="2996" y="3897.9999999999995" width="40" height="40" as="geometry" />
        </mxCell>
        <mxCell id="mJxSs9lJf7yy_aO9zKj6-192" value="" style="ellipse;whiteSpace=wrap;html=1;aspect=fixed;fillColor=#ffcccc;strokeColor=#36393d;strokeWidth=2;" vertex="1" parent="1">
          <mxGeometry x="3325" y="3864.9999999999995" width="40" height="40" as="geometry" />
        </mxCell>
        <mxCell id="mJxSs9lJf7yy_aO9zKj6-193" value="" style="endArrow=none;dashed=1;html=1;rounded=0;entryX=0.5;entryY=1;entryDx=0;entryDy=0;exitX=0.758;exitY=0.027;exitDx=0;exitDy=0;exitPerimeter=0;strokeWidth=6;" edge="1" parent="1" source="mJxSs9lJf7yy_aO9zKj6-191" target="mJxSs9lJf7yy_aO9zKj6-175">
          <mxGeometry width="50" height="50" relative="1" as="geometry">
            <mxPoint x="3020" y="3897.9999999999995" as="sourcePoint" />
            <mxPoint x="3050" y="3840.9999999999995" as="targetPoint" />
          </mxGeometry>
        </mxCell>
        <mxCell id="mJxSs9lJf7yy_aO9zKj6-194" value="" style="endArrow=none;dashed=1;html=1;rounded=0;entryX=1;entryY=1;entryDx=0;entryDy=0;exitX=0;exitY=0;exitDx=0;exitDy=0;strokeWidth=6;" edge="1" parent="1" source="mJxSs9lJf7yy_aO9zKj6-192" target="mJxSs9lJf7yy_aO9zKj6-175">
          <mxGeometry width="50" height="50" relative="1" as="geometry">
            <mxPoint x="2950" y="3880.9999999999995" as="sourcePoint" />
            <mxPoint x="3000" y="3830.9999999999995" as="targetPoint" />
          </mxGeometry>
        </mxCell>
        <mxCell id="mJxSs9lJf7yy_aO9zKj6-195" value="" style="endArrow=none;dashed=1;html=1;rounded=0;entryX=0;entryY=1;entryDx=0;entryDy=0;exitX=1;exitY=0.5;exitDx=0;exitDy=0;strokeWidth=6;" edge="1" parent="1" source="mJxSs9lJf7yy_aO9zKj6-191" target="mJxSs9lJf7yy_aO9zKj6-192">
          <mxGeometry width="50" height="50" relative="1" as="geometry">
            <mxPoint x="2990" y="4000.9999999999995" as="sourcePoint" />
            <mxPoint x="3040" y="3950.9999999999995" as="targetPoint" />
          </mxGeometry>
        </mxCell>
        <mxCell id="mJxSs9lJf7yy_aO9zKj6-197" value="(a) 不同颜色代表&lt;br&gt;我们期望的划分结果" style="text;html=1;align=center;verticalAlign=middle;resizable=0;points=[];autosize=1;strokeColor=none;fillColor=none;fontSize=48;" vertex="1" parent="1">
          <mxGeometry x="-927" y="4150" width="450" height="120" as="geometry" />
        </mxCell>
        <mxCell id="mJxSs9lJf7yy_aO9zKj6-198" value="将数据文件按&lt;br&gt;序等量划分" style="text;html=1;align=center;verticalAlign=middle;resizable=0;points=[];autosize=1;strokeColor=none;fillColor=none;fontSize=48;" vertex="1" parent="1">
          <mxGeometry x="-205" y="3631" width="300" height="120" as="geometry" />
        </mxCell>
      </root>
    </mxGraphModel>
  </diagram>
</mxfile>
